<svg xmlns="http://www.w3.org/2000/svg" width="40" height="40" fill="none"><path fill="#ED6D40" d="M23.06 25.1c0-1.16.94-2.1 2.1-2.1h1.74a2.1 2.1 0 0 0 2.1-2.1V7.1c0-1.16.94-2.1 2.1-2.1h1.8c1.16 0 2.1.94 2.1 2.1v13.8a2.1 2.1 0 0 1-2.1 2.1h-1.74a2.1 2.1 0 0 0-2.1 2.1v7.8a2.1 2.1 0 0 1-2.1 2.1h-1.8a2.1 2.1 0 0 1-2.1-2.1v-7.8ZM11.06 25.1c0-1.16.94-2.1 2.1-2.1h1.74a2.1 2.1 0 0 0 2.1-2.1V7.1c0-1.16.94-2.1 2.1-2.1h1.8c1.16 0 2.1.94 2.1 2.1v13.8a2.1 2.1 0 0 1-2.1 2.1h-1.74a2.1 2.1 0 0 0-2.1 2.1v7.8a2.1 2.1 0 0 1-2.1 2.1h-1.8a2.1 2.1 0 0 1-2.1-2.1v-7.8ZM5 7.1C5 5.94 5.94 5 7.1 5h1.8c1.16 0 2.1.94 2.1 2.1v7.8A2.1 2.1 0 0 1 8.9 17H7.1A2.1 2.1 0 0 1 5 14.9V7.1Z"/></svg>