<?xml version="1.0" encoding="UTF-8"?>
<svg xmlns="http://www.w3.org/2000/svg" width="150" height="150" viewBox="0 0 150 150" fill="none">
  <path d="M120.801 42.1185C109.689 39.723 102.584 29.066 104.931 18.3154C107.279 7.5648 118.189 0.791726 129.301 3.18725C140.413 5.58277 147.518 16.2398 145.171 26.9904C142.823 37.741 131.913 44.5141 120.801 42.1185Z" fill="#E7E7E7"></path>
  <path d="M31.9492 109.577C43.0611 111.973 50.1663 122.63 47.8187 133.381C45.4713 144.131 34.5604 150.904 23.4486 148.509C12.3367 146.113 5.23171 135.456 7.5791 124.706C9.9265 113.955 20.8374 107.182 31.9492 109.577Z" fill="#E7E7E7"></path>
  <path d="M52.0957 57.9749C62.9151 60.3074 69.7829 70.9133 67.4359 81.6638C65.0884 92.4144 54.4146 99.239 43.5952 96.9065C32.7759 94.574 25.908 83.9681 28.2554 73.2175C30.6028 62.4669 41.2765 55.6424 52.0957 57.9749Z" fill="#E7E7E7"></path>
  <path d="M108.629 58.2625C119.741 60.658 126.846 71.3151 124.499 82.0657C122.152 92.8163 111.241 99.5892 100.129 97.1941C89.017 94.7985 81.9118 84.1414 84.2593 73.3908C86.6068 62.6402 97.5175 55.8669 108.629 58.2625Z" fill="#E7E7E7"></path>
</svg>
