<?xml version="1.0" encoding="UTF-8"?>
<svg xmlns="http://www.w3.org/2000/svg" width="100" height="100" viewBox="0 0 100 100" fill="none">
  <g clip-path="url(#clip0_2581_7431)">
    <path d="M69.7516 29.2228V22.2786C69.7516 20.7439 68.5239 19.5009 67.0082 19.5009H32.99C31.4743 19.5009 30.2466 20.7439 30.2466 22.2786V36.7226C30.2466 38.2571 31.4743 39.5003 32.99 39.5003H67.0082C68.5239 39.5003 69.7516 40.7435 69.7516 42.278V56.722C69.7516 58.2568 70.9794 59.4997 72.4951 59.4997H86.7607C88.2764 59.4997 89.5041 60.7425 89.5041 62.2774V76.7214C89.5041 78.2559 88.2764 79.4991 86.7607 79.4991H72.4951C70.9794 79.4991 69.7516 80.7423 69.7516 82.2768V96.7208C69.7516 98.2553 68.5239 99.4985 67.0082 99.4985H32.99C31.4743 99.4985 30.2466 98.2553 30.2466 96.7208V82.2768C30.2466 80.7423 29.019 79.4991 27.5032 79.4991H13.2375C11.7218 79.4991 10.4941 78.2559 10.4941 76.7214V69.7772C10.4941 68.2423 11.7218 66.9995 13.2375 66.9995H27.5032C29.019 66.9995 30.2466 68.2423 30.2466 69.7772V76.7214C30.2466 78.2559 31.4743 79.4991 32.99 79.4991H67.0082C68.5239 79.4991 69.7516 78.2559 69.7516 76.7214V62.2774C69.7516 60.7425 68.5239 59.4997 67.0082 59.4997H32.99C31.4743 59.4997 30.2466 58.2568 30.2466 56.722V42.278C30.2466 40.7435 29.019 39.5003 27.5032 39.5003H13.2375C11.7218 39.5003 10.4941 38.2571 10.4941 36.7226V22.2786C10.4941 20.7439 11.7218 19.5009 13.2375 19.5009H27.5032C29.019 19.5009 30.2466 18.2579 30.2466 16.7232V2.27916C30.2466 0.744484 31.4743 -0.498535 32.99 -0.498535H67.0082C68.5239 -0.498535 69.7516 0.744484 69.7516 2.27916V16.7232C69.7516 18.2579 70.9794 19.5009 72.4951 19.5009H86.7607C88.2764 19.5009 89.5041 20.7439 89.5041 22.2786V29.2228C89.5041 30.7573 88.2764 32.0005 86.7607 32.0005H72.4951C70.9794 32.0005 69.7516 30.7573 69.7516 29.2228Z" fill="#111111"></path>
  </g>
  <defs>
    <clipPath id="clip0_2581_7431">
      <rect width="100" height="100" fill="white"></rect>
    </clipPath>
  </defs>
</svg>
