<?xml version="1.0" encoding="UTF-8"?>
<svg xmlns="http://www.w3.org/2000/svg" width="100" height="100" viewBox="0 0 100 100" fill="none">
  <path d="M66.5658 24.3917V9.24839C66.5658 5.91619 62.5312 4.2468 60.1632 6.60242L39.6789 27.0376C37.3175 29.3933 33.2762 27.7238 33.2762 24.3917V9.24839C33.2762 5.91619 29.2416 4.2468 26.8736 6.60242L3.0161 30.4094C1.08474 32.3361 0 34.9557 0 37.6808V66.6279V90.7516C0 94.0838 4.03469 95.7532 6.39598 93.3976L26.887 72.9955C29.2483 70.6398 33.2829 72.3091 33.2829 75.6414V90.7516C33.2829 94.0838 37.3175 95.7532 39.6789 93.3976L60.1699 72.9955C62.5312 70.6398 66.5658 72.3091 66.5658 75.6414V90.7516C66.5658 94.0838 70.6004 95.7532 72.9618 93.3976L96.8194 69.6434C98.7574 67.71 99.8487 65.0905 99.8487 62.3587V33.4249V9.24839C99.8487 5.91619 95.8141 4.2468 93.4461 6.60242L72.9618 27.0376C70.6004 29.3933 66.5592 27.7238 66.5592 24.3917H66.5658Z" fill="#111111"></path>
</svg>
