<?xml version="1.0" encoding="UTF-8"?>
<svg xmlns="http://www.w3.org/2000/svg" width="100" height="101" viewBox="0 0 100 101" fill="none">
  <path d="M53.9756 0H1.97046V53.9482L49.7035 99.814L49.9998 100L50.2961 99.814L98.0292 53.9482V0H53.9756ZM91.0975 49.7244L50.0033 91.8487L8.90562 49.7244V6.21167H91.0975V49.7244Z" fill="#111111"></path>
  <path d="M11.3301 30.7655L15.6435 42.7237L28.2184 49.8725L26.2477 60.8454L34.3818 69.5962L40.4212 55.2952L41.286 55.4193L37.9579 73.665L49.961 86.5259V86.6085L49.9989 86.5672L50.0368 86.6085V86.5259L62.0432 73.665L58.7152 55.4193L59.5765 55.2952L65.6159 69.5962L73.7534 60.8454L71.7793 49.8725L84.3543 42.7237L88.6676 30.7655L49.9989 48.3773L11.3301 30.7655Z" fill="#111111"></path>
  <path d="M61.3029 26.5863L55.3944 16.7607H59.694L60.8482 17.367V14.4593L58.5433 10.9452L45.6411 11.1864L37.1487 25.9111L8.61914 13.5084V25.2186L49.9132 43.4609L49.9993 43.4988L50.0854 43.4609L91.3794 25.2186V13.5084L61.3029 26.5863Z" fill="#111111"></path>
</svg>
