<?xml version="1.0" encoding="UTF-8"?>
<svg xmlns="http://www.w3.org/2000/svg" width="100" height="100" viewBox="0 0 100 100" fill="none">
  <path d="M98.7627 36.6139L87.0087 24.8925L75.2554 13.1827C74.8261 12.7546 74.2344 12.5 73.6194 12.5H27.1736C25.8973 12.5 24.8531 13.5298 24.8531 14.8142V30.2962C24.8531 34.1608 21.7087 37.2966 17.8334 37.2966H2.32055C1.04425 37.2966 0 38.3264 0 39.6108V61.1328C0 61.7461 0.243657 62.3362 0.684562 62.7643L12.4382 74.4857L24.1917 86.2071C24.621 86.6352 25.2128 86.8897 25.8277 86.8897H72.2735C73.5498 86.8897 74.594 85.8599 74.594 84.5756V69.0936C74.594 65.2289 77.7383 62.1047 81.6135 62.1047H97.15C98.4262 62.1047 99.4706 61.0749 99.4706 59.7906V38.2686C99.4706 37.6553 99.227 37.0651 98.7857 36.637L98.7627 36.6139ZM27.1736 62.0816C25.8973 62.0816 24.8531 61.0518 24.8531 59.7674V42.7696V44.297C24.8531 40.4324 27.9974 37.2966 31.8727 37.2966H49.7178H72.2619C73.5382 37.2966 74.5824 38.3264 74.5824 39.6108V55.1043C74.5824 58.9574 71.4381 62.0932 67.5628 62.0932H49.7178H27.1736V62.0816Z" fill="#111111"></path>
</svg>
