<?xml version="1.0" encoding="UTF-8"?>
<svg xmlns="http://www.w3.org/2000/svg" width="100" height="100" viewBox="0 0 100 100" fill="none">
  <path d="M80.5338 28.079C73.1259 26.482 68.3891 19.3773 69.9541 12.2103C71.5191 5.0432 78.7929 0.527817 86.2009 2.12483C93.6088 3.72185 98.3453 10.8265 96.7806 17.9936C95.2156 25.1606 87.9418 29.6761 80.5338 28.079Z" fill="#111111"></path>
  <path d="M21.2995 73.0515C28.7074 74.6486 33.4442 81.7533 31.8791 88.9203C30.3142 96.0874 23.0403 100.603 15.6324 99.0059C8.22446 97.4089 3.48781 90.3042 5.05273 83.1371C6.61767 75.97 13.8916 71.4547 21.2995 73.0515Z" fill="#111111"></path>
  <path d="M34.7305 38.6499C41.9434 40.2049 46.522 47.2755 44.9573 54.4426C43.3923 61.6096 36.2764 66.1593 29.0635 64.6043C21.8506 63.0493 17.272 55.9787 18.8369 48.8117C20.4018 41.6446 27.5177 37.0949 34.7305 38.6499Z" fill="#111111"></path>
  <path d="M72.4196 38.8416C79.8276 40.4387 84.564 47.5434 82.9993 54.7105C81.4343 61.8775 74.1605 66.3928 66.7526 64.796C59.3446 63.199 54.6079 56.0943 56.1729 48.9272C57.7379 41.7602 65.0117 37.2446 72.4196 38.8416Z" fill="#111111"></path>
</svg>
