<?xml version="1.0" encoding="UTF-8"?>
<svg xmlns="http://www.w3.org/2000/svg" width="150" height="150" viewBox="0 0 150 150" fill="none">
  <path d="M99.8487 36.5875V13.8726C99.8487 8.87429 93.7968 6.3702 90.2448 9.90364L59.5183 40.5564C55.9763 44.0899 49.9144 41.5857 49.9144 36.5875V13.8726C49.9144 8.87429 43.8624 6.3702 40.3104 9.90364L4.52415 45.6142C1.62711 48.5042 0 52.4335 0 56.5213V99.9419V136.127C0 141.126 6.05203 143.63 9.59397 140.096L40.3304 109.493C43.8724 105.96 49.9244 108.464 49.9244 113.462V136.127C49.9244 141.126 55.9763 143.63 59.5183 140.096L90.2548 109.493C93.7968 105.96 99.8487 108.464 99.8487 113.462V136.127C99.8487 141.126 105.901 143.63 109.443 140.096L145.229 104.465C148.136 101.565 149.773 97.6357 149.773 93.538V50.1373V13.8726C149.773 8.87429 143.721 6.3702 140.169 9.90364L109.443 40.5564C105.901 44.0899 99.8387 41.5857 99.8387 36.5875H99.8487Z" fill="#E7E7E7"></path>
</svg>
