<?xml version="1.0" encoding="UTF-8"?>
<svg xmlns="http://www.w3.org/2000/svg" width="150" height="150" viewBox="0 0 150 150" fill="none">
  <path d="M148.144 54.9208L130.513 37.3388L112.883 19.774C112.239 19.1318 111.352 18.75 110.429 18.75H40.7605C38.8459 18.75 37.2796 20.2947 37.2796 22.2213V45.4443C37.2796 51.2413 32.5631 55.9449 26.7501 55.9449H3.48082C1.56637 55.9449 0 57.4896 0 59.4161V91.6992C0 92.6191 0.365486 93.5043 1.02684 94.1465L18.6573 111.728L36.2876 129.311C36.9315 129.953 37.8192 130.335 38.7415 130.335H108.41C110.325 130.335 111.891 128.79 111.891 126.863V103.64C111.891 97.8433 116.607 93.1571 122.42 93.1571H145.725C147.639 93.1571 149.206 91.6124 149.206 89.6859V57.4029C149.206 56.4829 148.84 55.5977 148.179 54.9555L148.144 54.9208ZM40.7605 93.1224C38.8459 93.1224 37.2796 91.5777 37.2796 89.6512V64.1545V66.4455C37.2796 60.6485 41.9961 55.9449 47.809 55.9449H74.5767H108.393C110.307 55.9449 111.874 57.4896 111.874 59.4161V82.6565C111.874 88.4362 107.157 93.1398 101.344 93.1398H74.5767H40.7605V93.1224Z" fill="#E7E7E7"></path>
</svg>
