<?xml version="1.0" encoding="UTF-8"?>
<svg xmlns="http://www.w3.org/2000/svg" width="150" height="151" viewBox="0 0 150 151" fill="none">
  <path d="M80.9635 0H2.95581V80.9223L74.5554 149.721L74.9998 150L75.4443 149.721L147.044 80.9223V0H80.9635ZM136.646 74.5866L75.005 137.773L13.3586 74.5866V9.31751H136.646V74.5866Z" fill="#E7E7E7"></path>
  <path d="M16.9951 46.1484L23.4652 64.0858L42.3276 74.8089L39.3716 91.2683L51.5727 104.394L60.6319 82.943L61.929 83.1291L56.9369 110.498L74.9414 129.789V129.913L74.9983 129.851L75.0551 129.913V129.789L93.0648 110.498L88.0728 83.1291L89.3647 82.943L98.4238 104.394L110.63 91.2683L107.669 74.8089L126.531 64.0858L133.001 46.1484L74.9983 72.5661L16.9951 46.1484Z" fill="#E7E7E7"></path>
  <path d="M91.9544 39.8797L83.0917 25.1412H89.5411L91.2723 26.0507V21.6891L87.815 16.418L68.4617 16.7797L55.7231 38.8668L12.9287 20.2628V37.8281L74.8697 65.1915L74.9989 65.2483L75.1281 65.1915L137.069 37.8281V20.2628L91.9544 39.8797Z" fill="#E7E7E7"></path>
</svg>
