<?xml version="1.0" encoding="UTF-8"?>
<svg version="1.1" xmlns="http://www.w3.org/2000/svg" width="1021" height="593">
<path d="M0 0 C5.26586097 3.90813014 10.20408158 8.1491876 15.07177734 12.53759766 C16.05275391 13.40900391 17.03373047 14.28041016 18.04443359 15.17822266 C28.560808 24.65542963 39.16095109 34.51012353 48.07177734 45.53759766 C48.64541016 46.16408203 49.21904297 46.79056641 49.81005859 47.43603516 C51.07177734 49.53759766 51.07177734 49.53759766 50.85351562 51.78320312 C49.91861679 55.07724705 48.50237444 57.72220029 46.82568359 60.70947266 C46.15035613 61.93024012 45.47582899 63.15145058 44.80200195 64.37304688 C44.27097366 65.32966217 44.27097366 65.32966217 43.72921753 66.30560303 C29.73462627 91.63776736 20.09776592 117.98234947 14.25927734 146.35009766 C14.06422607 147.29046875 13.8691748 148.23083984 13.66821289 149.19970703 C10.48935153 165.61143766 9.69002032 182.04600631 9.75927734 198.72509766 C9.7614325 199.66536804 9.76358765 200.60563843 9.76580811 201.57440186 C9.91858963 243.22723726 17.94691218 293.86478839 48.32177734 325.22509766 C51.3618979 328.06130769 54.50925879 330.40008652 58.07177734 332.53759766 C52.20435173 334.49340619 45.42307719 330.20402518 40.07177734 327.53759766 C28.71950298 321.23941804 18.09794051 313.76386807 8.07177734 305.53759766 C7.53311035 305.10044434 6.99444336 304.66329102 6.43945312 304.21289062 C-6.73925723 293.46799978 -19.37985807 281.58554883 -29.85400391 268.15869141 C-31.29681031 266.33548407 -32.7998191 264.55898775 -34.34619141 262.82275391 C-48.23434832 247.21139879 -59.33059951 229.04509511 -68.92822266 210.53759766 C-69.27256348 209.87920898 -69.6169043 209.22082031 -69.97167969 208.54248047 C-72.37925677 203.91579535 -74.6817168 199.24440727 -76.92822266 194.53759766 C-77.45947754 193.42940674 -77.45947754 193.42940674 -78.00146484 192.29882812 C-92.18621416 162.45827208 -101.48579995 131.08530947 -106.92822266 98.53759766 C-107.06099609 97.77108887 -107.19376953 97.00458008 -107.33056641 96.21484375 C-112.84089284 63.37732261 -110.5061882 24.569633 -90.67822266 -3.27490234 C-65.90143802 -33.36099798 -26.42957766 -19.01633158 0 0 Z " fill="#F7793A" transform="translate(173.92822265625,107.46240234375)"/>
<path d="M0 0 C11.20448736 9.12172551 14.27410427 23.28945441 16 37 C16.49936025 43.01295223 16.48539426 49.03321426 16.4375 55.0625 C16.43479095 55.86615997 16.43208191 56.66981995 16.42929077 57.49783325 C16.25194465 92.32800806 6.18636391 122.46244257 -18 148 C-19 146 -19 146 -18.0390625 142.734375 C-17.57504837 141.4036678 -17.103344 140.07562354 -16.625 138.75 C-12.76774625 127.96240573 -10.48186226 115.46770695 -14.75 104.4375 C-15.46580737 102.94148736 -16.21258732 101.45959423 -17 100 C-17.556875 98.906875 -18.11375 97.81375 -18.6875 96.6875 C-23.27796335 91.35263718 -29.62818341 88.40162773 -36.59375 87.76171875 C-52.18883494 87.36345717 -65.27738887 94.29686926 -76.5625 104.6875 C-78.74232412 106.75876779 -80.8791894 108.86847485 -83 111 C-83.92683594 111.92683594 -84.85367188 112.85367188 -85.80859375 113.80859375 C-99.19147317 127.81302925 -109.44243397 144.24143338 -119 161 C-119.40702148 161.70415039 -119.81404297 162.40830078 -120.23339844 163.13378906 C-130.87558624 181.67956311 -138.93296448 202.23076659 -144 223 C-144.31324219 224.27738037 -144.31324219 224.27738037 -144.6328125 225.58056641 C-147.78510687 239.15488466 -148.38652352 252.6266319 -148.4375 266.5 C-148.44689606 267.69976471 -148.44689606 267.69976471 -148.45648193 268.92376709 C-148.57648716 293.13435506 -142.78634873 315.42983257 -128 335 C-128.66 335.33 -129.32 335.66 -130 336 C-147.90139409 318.67607023 -156.82942586 299.39211941 -161 275 C-161.17660156 273.97712891 -161.35320312 272.95425781 -161.53515625 271.90039062 C-162.95902629 262.92492413 -163.40073963 254.06970941 -163.375 245 C-163.37418427 243.90449829 -163.37418427 243.90449829 -163.37335205 242.78686523 C-163.1440019 174.92123879 -134.71726983 103.73886423 -94 50 C-93.5875 49.44618652 -93.175 48.89237305 -92.75 48.32177734 C-74.12956186 23.37862183 -35.08528198 -21.3991224 0 0 Z " fill="#1DAFBD" transform="translate(365,106)"/>
<path d="M0 0 C53.64702284 0 53.64702284 0 66.7421875 12.58203125 C75.67829186 22.15201152 80.32731539 34.1074156 80.15234375 47.19140625 C79.37743911 61.47746871 75.5812415 72.15025912 65 82 C46.3758018 96.99405788 23.12315005 93 0 93 C0 62.31 0 31.62 0 0 Z " fill="#1294A7" transform="translate(798,222)"/>
<path d="M0 0 C50.34285714 0 50.34285714 0 65.1875 10.1875 C74.66492844 19.66492844 79.97607203 32.07154733 80.25 45.5625 C80.09227803 57.35659858 76.08752112 68.82211932 68.1875 77.625 C64.20748952 81.36581119 59.94917543 83.95734179 55.125 86.4375 C54.48973389 86.76766113 53.85446777 87.09782227 53.19995117 87.43798828 C37.00987691 95.21655067 16.74925075 92 0 92 C0 61.64 0 31.28 0 0 Z " fill="#1495A8" transform="translate(427,338)"/>
<path d="M0 0 C7.59 0 15.18 0 23 0 C31 21.33333333 39 42.66666667 47 64 C47.27561768 63.21278564 47.55123535 62.42557129 47.83520508 61.61450195 C53.0938535 46.62339722 58.42767202 31.66691392 64.0625 16.8125 C64.759198 14.9713562 64.759198 14.9713562 65.4699707 13.09301758 C67.17587733 8.62003983 68.85720619 4.28558762 71 0 C78.59 0 86.18 0 94 0 C94 30.69 94 61.38 94 93 C88.72 93 83.44 93 78 93 C77.67 71.22 77.34 49.44 77 27 C74.710625 33.27 72.42125 39.54 70.0625 46 C61.06042048 70.61446654 61.06042048 70.61446654 56.625 82.5 C56.262854 83.47582031 55.90070801 84.45164062 55.52758789 85.45703125 C55.20137451 86.32714844 54.87516113 87.19726562 54.5390625 88.09375 C54.26271973 88.83302734 53.98637695 89.57230469 53.70166016 90.33398438 C53 92 53 92 52 93 C48.33344805 93.14300125 44.66855781 93.04216733 41 93 C35.94786576 81.4478067 31.71842033 69.58093084 27.375 57.75 C26.22733557 54.63159867 25.07896564 51.51345774 23.93057251 48.39532471 C23.22096943 46.46776981 22.51192965 44.54000742 21.80355835 42.61199951 C21.47957062 41.73038147 21.15558289 40.84876343 20.82177734 39.94042969 C20.54151703 39.17720398 20.26125671 38.41397827 19.97250366 37.62762451 C18.65980364 34.08081756 17.3279255 30.54113467 16 27 C15.67 48.78 15.34 70.56 15 93 C10.05 93 5.1 93 0 93 C0 62.31 0 31.62 0 0 Z " fill="#1396A8" transform="translate(427,222)"/>
<path d="M0 0 C52.18803648 0 52.18803648 0 61.4140625 9.0703125 C66.92553981 15.77639573 68.83830361 23.39241828 68 32 C66.07829758 41.14221665 62.63295245 47.13030157 55.09765625 52.703125 C52.81161381 54.11646967 50.51774127 55.07171974 48 56 C53.56235871 65.96733222 59.44283328 75.7217895 65.42626953 85.44165039 C66.31354736 86.88785767 66.31354736 86.88785767 67.21875 88.36328125 C67.75435547 89.23251221 68.28996094 90.10174316 68.84179688 90.99731445 C70 93 70 93 70 94 C63.4 94 56.8 94 50 94 C48.96359375 92.13214844 47.9271875 90.26429688 46.859375 88.33984375 C45.84336623 86.50946344 44.82720768 84.67916636 43.81103516 82.84887695 C43.11068355 81.58724495 42.41048507 80.32552793 41.71044922 79.0637207 C40.69800466 77.23886521 39.68494895 75.4143499 38.671875 73.58984375 C38.03314453 72.4385498 37.39441406 71.28725586 36.73632812 70.10107422 C35.3554538 67.63483889 33.94818807 65.19014777 32.515625 62.75390625 C31 60 31 60 31 58 C26.38 58 21.76 58 17 58 C17 69.88 17 81.76 17 94 C11.39 94 5.78 94 0 94 C0 62.98 0 31.96 0 0 Z " fill="#EF7639" transform="translate(427,105)"/>
<path d="M0 0 C17 0 17 0 21.1862793 3.43041992 C22.68351746 5.71244812 22.68351746 5.71244812 24.07421875 8.23046875 C24.61625443 9.09070145 25.1582901 9.95093414 25.7167511 10.8372345 C27.43322711 13.58894447 29.06003589 16.38242217 30.6875 19.1875 C31.78660394 20.98852542 32.89139203 22.78609482 34.00195312 24.58007812 C35.59940611 27.16557195 37.18938186 29.751846 38.73332214 32.36967468 C44.75614038 42.55117555 51.3992851 52.09892765 58 62 C58.33 41.54 58.66 21.08 59 0 C64.61 0 70.22 0 76 0 C76 30.69 76 61.38 76 93 C70.39 93 64.78 93 59 93 C53.75543519 87.20268852 53.75543519 87.20268852 52.26318359 84.19335938 C49.66511227 79.2520611 46.53938299 74.70540705 43.42578125 70.078125 C42.24950943 68.294578 41.07571133 66.50939727 39.90429688 64.72265625 C39.31382568 63.82305176 38.72335449 62.92344727 38.11499023 61.99658203 C37.52016846 61.09020996 36.92534668 60.18383789 36.3125 59.25 C34.50917479 56.50518845 32.70540093 53.76067239 30.90141296 51.01629639 C29.78896051 49.32362086 28.67695725 47.63064999 27.56550598 45.93731689 C27.05444809 45.15910583 26.5433902 44.38089478 26.0168457 43.57910156 C25.57766312 42.90993713 25.13848053 42.24077271 24.68598938 41.55133057 C22.13617314 37.69281034 19.56543541 33.84815311 17 30 C16.67 50.79 16.34 71.58 16 93 C10.72 93 5.44 93 0 93 C0 62.31 0 31.62 0 0 Z " fill="#1294A7" transform="translate(705,222)"/>
<path d="M0 0 C6.6 0 13.2 0 20 0 C27.74904619 19.9500282 34.98252088 40.06271673 42.07202148 60.25585938 C42.77439279 62.25397095 43.47694348 64.25201948 44.1796875 66.25 C44.5139827 67.20185181 44.84827789 68.15370361 45.19270325 69.13439941 C47.39347769 75.37059643 49.70785063 81.54217656 52.19189453 87.671875 C53 90 53 90 53 93 C47.06 93 41.12 93 35 93 C33.82970578 89.54285535 32.66361387 86.08439258 31.5 82.625 C31.16613281 81.64015625 30.83226562 80.6553125 30.48828125 79.640625 C30.01455078 78.22910156 30.01455078 78.22910156 29.53125 76.7890625 C29.23798828 75.91975098 28.94472656 75.05043945 28.64257812 74.15478516 C28 72 28 72 28 70 C16.12 70 4.24 70 -8 70 C-8.33 71.65 -8.66 73.3 -9 75 C-9.44387811 76.48334571 -9.91420286 77.95902548 -10.41015625 79.42578125 C-10.67763672 80.22177734 -10.94511719 81.01777344 -11.22070312 81.83789062 C-11.49849609 82.65451172 -11.77628906 83.47113281 -12.0625 84.3125 C-12.34416016 85.14845703 -12.62582031 85.98441406 -12.91601562 86.84570312 C-13.60795182 88.89805624 -14.30360709 90.94915483 -15 93 C-20.94 93 -26.88 93 -33 93 C-32.30843202 89.54216009 -31.63058436 86.69784884 -30.45629883 83.44555664 C-30.14071518 82.56626999 -29.82513153 81.68698334 -29.49998474 80.78105164 C-28.98372276 79.35995842 -28.98372276 79.35995842 -28.45703125 77.91015625 C-28.09638077 76.90906326 -27.73573029 75.90797028 -27.364151 74.87654114 C-26.18389197 71.60387234 -24.99834836 68.33314724 -23.8125 65.0625 C-22.9993412 62.81207333 -22.18635409 60.56158461 -21.37353516 58.31103516 C-14.33464344 38.84244994 -7.19534538 19.4112372 0 0 Z " fill="#1293A6" transform="translate(914,222)"/>
<path d="M0 0 C6.27 0 12.54 0 19 0 C24.42641811 13.74692589 29.5474735 27.59525287 34.61541748 41.47737122 C37.60294316 49.65748115 40.61027102 57.83029909 43.61984253 66.00231934 C44.54871932 68.52507279 45.47664706 71.04817398 46.40454102 73.57128906 C46.97926964 75.13218347 47.5540553 76.69305688 48.12890625 78.25390625 C48.38990112 78.96408401 48.650896 79.67426178 48.9197998 80.40596008 C49.95940997 83.22594326 51.011356 86.02692672 52.17944336 88.79663086 C53 91 53 91 53 94 C47.06 94 41.12 94 35 94 C32.36 86.41 29.72 78.82 27 71 C15.45 71 3.9 71 -8 71 C-10.64 78.59 -13.28 86.18 -16 94 C-21.94 94 -27.88 94 -34 94 C-29.03382889 78.77034229 -23.6816709 63.71078608 -18.125 48.6875 C-17.36560617 46.62575387 -16.60649106 44.56390507 -15.84765625 42.50195312 C-10.62063328 28.31377971 -5.32232839 14.15266255 0 0 Z " fill="#F07538" transform="translate(645,105)"/>
<path d="M0 0 C6.93 0 13.86 0 21 0 C21.825 2.30484375 22.65 4.6096875 23.5 6.984375 C24.66611368 10.23978163 25.83297276 13.49492077 27 16.75 C27.3066861 17.60547424 27.61337219 18.46094849 27.92935181 19.34234619 C31.72537159 29.92677185 35.53990071 40.50423479 39.38671875 51.0703125 C39.74694122 52.05974854 40.1071637 53.04918457 40.478302 54.06860352 C42.23527078 58.892576 43.99444137 63.71573636 45.75585938 68.53808594 C46.40365362 70.31445029 47.05144044 72.09081734 47.69921875 73.8671875 C47.9893132 74.65948761 48.27940765 75.45178772 48.57829285 76.26809692 C50.48043916 81.4876006 52.2417228 86.72516841 54 92 C47.73 92 41.46 92 35 92 C33.82970578 88.54285535 32.66361387 85.08439258 31.5 81.625 C31.16613281 80.64015625 30.83226562 79.6553125 30.48828125 78.640625 C30.01455078 77.22910156 30.01455078 77.22910156 29.53125 75.7890625 C29.23798828 74.91975098 28.94472656 74.05043945 28.64257812 73.15478516 C28 71 28 71 28 69 C16.12 69 4.24 69 -8 69 C-8.33 70.98 -8.66 72.96 -9 75 C-9.42901126 76.44769622 -9.89678163 77.88471514 -10.41015625 79.3046875 C-10.77185913 80.31764893 -10.77185913 80.31764893 -11.14086914 81.35107422 C-11.44500732 82.18396973 -11.74914551 83.01686523 -12.0625 83.875 C-13.031875 86.55625 -14.00125 89.2375 -15 92 C-20.94 92 -26.88 92 -33 92 C-30.31802707 82.54652094 -26.96708981 73.35963602 -23.625 64.125 C-23.00589765 62.40892842 -22.38700439 60.6927814 -21.76831055 58.9765625 C-20.48964689 55.43082034 -19.20942403 51.88564624 -17.92822266 48.34082031 C-16.34757359 43.9656475 -14.77299104 39.58832616 -13.20129395 35.20993042 C-12.02120958 31.9226715 -10.83934345 28.63605486 -9.65716553 25.34954834 C-9.09864104 23.79593897 -8.54072863 22.24210941 -7.98345947 20.68804932 C-7.20585547 18.52045978 -6.42552422 16.35387038 -5.64453125 14.1875 C-5.20471924 12.96417969 -4.76490723 11.74085938 -4.31176758 10.48046875 C-2.97950015 6.94560844 -1.48806496 3.47215157 0 0 Z " fill="#1394A7" transform="translate(637,338)"/>
<path d="M0 0 C5.61 0 11.22 0 17 0 C17 11.88 17 23.76 17 36 C30.2 36 43.4 36 57 36 C57 24.12 57 12.24 57 0 C62.61 0 68.22 0 74 0 C74 30.36 74 60.72 74 92 C68.39 92 62.78 92 57 92 C57 78.47 57 64.94 57 51 C43.8 51 30.6 51 17 51 C17 64.53 17 78.06 17 92 C11.39 92 5.78 92 0 92 C0 61.64 0 31.28 0 0 Z " fill="#1595A7" transform="translate(519,338)"/>
<path d="M0 0 C18.15 0 36.3 0 55 0 C55 4.95 55 9.9 55 15 C42.46 15 29.92 15 17 15 C17 22.59 17 30.18 17 38 C28.22 38 39.44 38 51 38 C51 42.62 51 47.24 51 52 C39.78 52 28.56 52 17 52 C17 60.58 17 69.16 17 78 C30.2 78 43.4 78 57 78 C57 82.95 57 87.9 57 93 C38.19 93 19.38 93 0 93 C0 62.31 0 31.62 0 0 Z " fill="#1495A7" transform="translate(538,222)"/>
<path d="M0 0 C1.36125 1.11375 1.36125 1.11375 2.75 2.25 C1.10821735 7.02609498 -1.51546702 11.04382904 -4.25 15.25 C-5.03761719 14.816875 -5.82523438 14.38375 -6.63671875 13.9375 C-14.51501959 9.90977697 -21.36514415 7.69273586 -30.25 9.25 C-32.95795808 10.62859684 -34.77883608 11.59934507 -36.5625 14.0625 C-37.49084633 17.01632924 -37.62765935 19.165782 -37.25 22.25 C-34.31741639 26.86863905 -31.37883645 28.37869839 -26.3125 30.25 C-25.6529834 30.50217285 -24.9934668 30.7543457 -24.31396484 31.01416016 C-21.1258705 32.22717999 -17.92093679 33.36197541 -14.69140625 34.4609375 C-5.85223298 37.56349773 0.51326059 41.44393239 5.8125 49.3125 C8.52715502 57.56957569 7.82251042 67.00554262 4.25 74.8125 C-0.32399622 82.75568691 -6.52259867 86.70574006 -15.12890625 89.55859375 C-27.53791931 92.30752405 -39.53943349 90.32384759 -50.3125 83.8125 C-54.11602189 81.37322556 -55.15631573 80.43736854 -57.25 76.25 C-53.29 71.3 -53.29 71.3 -49.25 66.25 C-45.42631913 67.77947235 -42.23811592 69.37506124 -38.6875 71.375 C-31.71652123 74.88624423 -25.64895593 75.42743188 -18.046875 73.76953125 C-14.75907503 72.62985269 -13.27878845 71.29178968 -11.3125 68.4375 C-9.837415 64.01224499 -9.57845587 61.01280335 -11.25 56.625 C-15.74966572 51.28164696 -23.29056139 49.43056439 -29.75 47.3125 C-39.65259999 43.90908214 -47.12057289 40.09607071 -53.25 31.25 C-56.24128408 24.09692936 -56.21600204 17.19633612 -53.5 10 C-49.90604832 1.96937694 -45.02551297 -1.81240048 -37.25 -5.75 C-25.62301797 -9.93471121 -9.82387663 -6.86888585 0 0 Z " fill="#F07538" transform="translate(561.25,110.75)"/>
<path d="M0 0 C27.39081325 0 27.39081325 0 35.4375 6.421875 C43.2688293 14.3315176 45.40450378 22.99188566 45.36791992 33.92919922 C45.15368593 42.71990007 42.41295158 49.87206849 36 56 C24.37831251 64.13291581 14.63974484 63 0 63 C0 42.21 0 21.42 0 0 Z " fill="#FEFEFE" transform="translate(815,237)"/>
<path d="M0 0 C27.4351145 0 27.4351145 0 35.6796875 7.53515625 C43.05018766 15.58403577 45.39642393 24.04387174 45.27734375 34.80078125 C44.56495565 43.01832854 41.35493831 50.61517396 35 56 C23.69576399 63.73556297 14.35829883 63 0 63 C0 42.21 0 21.42 0 0 Z " fill="#FDFEFE" transform="translate(444,352)"/>
<path d="M0 0 C5.61 0 11.22 0 17 0 C17 25.74 17 51.48 17 78 C28.55 78 40.1 78 52 78 C52 82.95 52 87.9 52 93 C34.84 93 17.68 93 0 93 C0 62.31 0 31.62 0 0 Z " fill="#1291A4" transform="translate(608,222)"/>
<path d="M0 0 C0.99 0.99 0.99 0.99 2 2 C1.63703021 6.75357058 0.48595746 10.99446151 -1.06640625 15.484375 C-1.6706543 17.25748047 -1.6706543 17.25748047 -2.28710938 19.06640625 C-2.70798828 20.28199219 -3.12886719 21.49757813 -3.5625 22.75 C-4.40121945 25.18088641 -5.2360503 27.61311905 -6.06640625 30.046875 C-6.43709229 31.11776367 -6.80777832 32.18865234 -7.18969727 33.29199219 C-8.14333318 36.00790848 -8.14333318 36.00790848 -8 39 C-7.28714844 38.14535156 -6.57429687 37.29070312 -5.83984375 36.41015625 C-4.87330881 35.29347996 -3.90580937 34.17763798 -2.9375 33.0625 C-2.47150391 32.49853516 -2.00550781 31.93457031 -1.52539062 31.35351562 C1.25662527 28.19299416 2.56982895 27.10632946 6.80859375 26.05859375 C7.86175781 26.03925781 8.91492188 26.01992188 10 26 C11 27 11 27 11.1875 29.6875 C10.99285364 33.12625243 10.22094153 35.79502847 9 39 C13.69267989 34.9590812 15.7650674 30.73091655 18 25 C18.99 25.33 19.98 25.66 21 26 C21 26.99 21 27.98 21 29 C22.670625 28.9690625 22.670625 28.9690625 24.375 28.9375 C28 29 28 29 30 30 C30 30.66 30 31.32 30 32 C29.35933594 32.03996094 28.71867188 32.07992187 28.05859375 32.12109375 C23.88556266 32.62484266 20.97467139 32.9817996 17.98828125 36.1015625 C16.84344618 37.72234024 15.71528561 39.35504579 14.60546875 41 C13 43 13 43 9.5625 44.0625 C8.716875 44.041875 7.87125 44.02125 7 44 C6.34 41.69 5.68 39.38 5 37 C4.401875 37.639375 3.80375 38.27875 3.1875 38.9375 C0.12032768 41.82940533 -2.63538486 42.15141586 -6.6875 42.5625 C-7.49574219 42.64628906 -8.30398438 42.73007812 -9.13671875 42.81640625 C-9.75160156 42.87699219 -10.36648438 42.93757813 -11 43 C-11.66 40.69 -12.32 38.38 -13 36 C-13.40992188 36.433125 -13.81984375 36.86625 -14.2421875 37.3125 C-14.78101563 37.869375 -15.31984375 38.42625 -15.875 39 C-16.40867187 39.556875 -16.94234375 40.11375 -17.4921875 40.6875 C-19 42 -19 42 -21 42 C-21 42.66 -21 43.32 -21 44 C-21.7734375 43.566875 -21.7734375 43.566875 -22.5625 43.125 C-25.62356725 41.71219973 -28.74944918 40.8751483 -32 40 C-32.495 37.03 -32.495 37.03 -33 34 C-33.81404297 34.97453125 -33.81404297 34.97453125 -34.64453125 35.96875 C-35.35996094 36.8040625 -36.07539062 37.639375 -36.8125 38.5 C-37.52019531 39.3353125 -38.22789062 40.170625 -38.95703125 41.03125 C-41 43 -41 43 -44 43 C-44 42.01 -44 41.02 -44 40 C-48.12994985 40.47653267 -51.34432558 41.05030698 -55 43 C-57.5625 43.8125 -57.5625 43.8125 -60 44 C-61 43 -62 42 -63 41 C-64.671549 41.30791692 -66.33805547 41.64386903 -68 42 C-70.75 41.1875 -70.75 41.1875 -73 40 C-73.33 39.34 -73.66 38.68 -74 38 C-74.33773437 38.5053125 -74.67546875 39.010625 -75.0234375 39.53125 C-75.69246094 40.50578125 -75.69246094 40.50578125 -76.375 41.5 C-76.81585937 42.1496875 -77.25671875 42.799375 -77.7109375 43.46875 C-78.13632812 43.9740625 -78.56171875 44.479375 -79 45 C-79.66 45 -80.32 45 -81 45 C-80.67 42.69 -80.34 40.38 -80 38 C-83.59610316 42.16637712 -83.59610316 42.16637712 -86.5 46.8125 C-88 49 -88 49 -90.6875 49.8125 C-91.450625 49.874375 -92.21375 49.93625 -93 50 C-93.08912219 46.16774573 -92.87867729 42.73437848 -92 39 C-93.98 40.98 -95.96 42.96 -98 45 C-98.99 44.67 -99.98 44.34 -101 44 C-101.6875 41.9375 -101.6875 41.9375 -102 40 C-103.0828125 40.7734375 -103.0828125 40.7734375 -104.1875 41.5625 C-107.4195366 43.21442982 -108.61608307 43.06351675 -112 42 C-112.93669174 38.39239868 -113.20704495 36.50995638 -111.78515625 33.0078125 C-111.21667969 32.05648437 -110.64820313 31.10515625 -110.0625 30.125 C-109.49660156 29.15820312 -108.93070313 28.19140625 -108.34765625 27.1953125 C-107.90292969 26.47085937 -107.45820312 25.74640625 -107 25 C-106.34 25.33 -105.68 25.66 -105 26 C-105.66666667 30 -106.33333333 34 -107 38 C-101.77540259 35.03147875 -99.68647691 32.37295382 -97 27 C-96.01 27 -95.02 27 -94 27 C-94.165 28.11375 -94.33 29.2275 -94.5 30.375 C-95.0455458 33.72032033 -95.0455458 33.72032033 -95 36 C-91.95706926 32.46362104 -89.28538605 29.08963819 -87 25 C-86.01 25.33 -85.02 25.66 -84 26 C-84.66666667 30 -85.33333333 34 -86 38 C-80.25009883 32.99576325 -77.0637842 27.92594864 -74 21 C-73.53207031 19.98164063 -73.06414063 18.96328125 -72.58203125 17.9140625 C-71.37424266 15.281963 -70.1812873 12.64407285 -69 10 C-68.01 10 -67.02 10 -66 10 C-66.49895478 17.15168515 -69.31563815 23.41291281 -72 30 C-71.22269531 29.35546875 -70.44539062 28.7109375 -69.64453125 28.046875 C-67.23219608 26.17972045 -65.94395666 25.43614173 -63 25 C-63.34879632 28.25543229 -64.02133261 29.01873107 -66.5625 31.25 C-67.366875 31.8275 -68.17125 32.405 -69 33 C-68.505 34.98 -68.505 34.98 -68 37 C-64.58875982 35.58845234 -63.1543777 33.93778777 -61 31 C-60.34 31 -59.68 31 -59 31 C-58.505 29.515 -58.505 29.515 -58 28 C-55.59454447 26.28181748 -54.34205453 25.97556753 -51.375 26.1875 C-49 27 -49 27 -47 30 C-47.53191489 36.06382979 -47.53191489 36.06382979 -49 39 C-43.65234739 36.20463614 -41.98467724 33.58282096 -39.95703125 27.92578125 C-39.64121094 27.29027344 -39.32539062 26.65476562 -39 26 C-38.01 25.67 -37.02 25.34 -36 25 C-36.33 26.98 -36.66 28.96 -37 31 C-36.2575 30.319375 -35.515 29.63875 -34.75 28.9375 C-33.8425 28.298125 -32.935 27.65875 -32 27 C-30.02 27.495 -30.02 27.495 -28 28 C-28 30.97 -28 33.94 -28 37 C-27.319375 36.29875 -26.63875 35.5975 -25.9375 34.875 C-17.31928571 26.32982143 -17.31928571 26.32982143 -12.75 25.1875 C-9.94497073 24.31930559 -9.94497073 24.31930559 -9.13671875 22.34375 C-8.64810357 20.83695905 -8.19930012 19.31693614 -7.78125 17.7890625 C-6.850285 14.46551744 -5.66726392 11.28705539 -4.4375 8.0625 C-3.81681641 6.40927734 -3.81681641 6.40927734 -3.18359375 4.72265625 C-2 2 -2 2 0 0 Z " fill="#38393A" transform="translate(937,459)"/>
<path d="M0 0 C5.61 0 11.22 0 17 0 C17 31.02 17 62.04 17 94 C11.39 94 5.78 94 0 94 C0 62.98 0 31.96 0 0 Z " fill="#F67636" transform="translate(580,105)"/>
<path d="M0 0 C5.61 0 11.22 0 17 0 C17 30.69 17 61.38 17 93 C11.39 93 5.78 93 0 93 C0 62.31 0 31.62 0 0 Z " fill="#1197AB" transform="translate(671,222)"/>
<path d="M0 0 C5.61 0 11.22 0 17 0 C17 30.36 17 60.72 17 92 C11.39 92 5.78 92 0 92 C0 61.64 0 31.28 0 0 Z " fill="#1192A4" transform="translate(700,338)"/>
<path d="M0 0 C5.27363188 4.75913121 8.20493307 8.86486924 8.78515625 16.08203125 C9.01238887 23.93637609 8.05992527 29.43718493 3.75 36.125 C-0.42860173 40.30360173 -4.12026807 41.5132063 -9.9375 41.75 C-16.23365532 41.56205506 -19.39160789 39.47205279 -23.6875 34.9375 C-28.3090943 28.00510856 -28.1737743 20.36550019 -27.4375 12.3125 C-25.79828843 6.32378955 -22.43099082 2.81856802 -17.4375 -0.6875 C-11.62364524 -2.62545159 -5.51641224 -2.70805692 0 0 Z " fill="#F4793A" transform="translate(265.4375,104.6875)"/>
<path d="M0 0 C3.135 -0.061875 6.27 -0.12375 9.5 -0.1875 C10.95696289 -0.22846802 10.95696289 -0.22846802 12.44335938 -0.27026367 C19.67631741 -0.33867957 25.26262144 0.67031612 30.9375 5.5 C34.28643302 9.55931275 34.34232291 12.86515637 34 18 C32.72287977 22.43235843 31.51015052 25.0284352 27.5625 27.375 C23.21205895 29.35941171 19.99334832 30.12816249 15.234375 30.09765625 C14.03119629 30.09390991 14.03119629 30.09390991 12.80371094 30.09008789 C11.79598633 30.08098389 10.78826172 30.07187988 9.75 30.0625 C6.5325 30.041875 3.315 30.02125 0 30 C0 20.1 0 10.2 0 0 Z " fill="#FEFDFD" transform="translate(444,119)"/>
<path d="M0 0 C0.66 0.66 1.32 1.32 2 2 C1.79914271 9.2224935 -0.85397119 15.41465982 -3.5 22.0625 C-7.22834839 31.28248524 -7.22834839 31.28248524 -9 41 C-9.99 41.33 -10.98 41.66 -12 42 C-12.495 40.02 -12.495 40.02 -13 38 C-13.51949219 38.37253906 -14.03898438 38.74507813 -14.57421875 39.12890625 C-20.34133791 43.04116638 -20.34133791 43.04116638 -24 42.8125 C-24.66 42.544375 -25.32 42.27625 -26 42 C-25.67 39.03 -25.34 36.06 -25 33 C-29.79525732 34.11517612 -31.53463103 35.60269306 -34.453125 39.46875 C-38.1036837 43.08243437 -43.65497002 44.8266717 -48.6953125 45.19921875 C-51 45 -51 45 -52.875 43.4375 C-54.52978961 39.85212252 -54.04174829 37.77633754 -53 34 C-50.85649948 30.61511967 -48.34500315 28.2300021 -45 26 C-42.8125 26.375 -42.8125 26.375 -41 27 C-40.1875 29.1875 -40.1875 29.1875 -40 32 C-42.66319979 35.27193118 -45.21010014 37.24040364 -49 39 C-49.33 39.66 -49.66 40.32 -50 41 C-44.19959462 39.66389808 -44.19959462 39.66389808 -39 37 C-37.87050779 34.19623648 -37.87050779 34.19623648 -37 31 C-36.02995879 28.98529902 -35.03755118 26.98077953 -34 25 C-33.01 25.33 -32.02 25.66 -31 26 C-31 27.32 -31 28.64 -31 30 C-29.6078125 29.690625 -29.6078125 29.690625 -28.1875 29.375 C-25 29 -25 29 -22 31 C-21.0925 30.195625 -20.185 29.39125 -19.25 28.5625 C-16.90643565 26.61137213 -15.1386831 25.22419165 -12 25 C-11.34 25.33 -10.68 25.66 -10 26 C-9.89429688 25.34 -9.78859375 24.68 -9.6796875 24 C-8.81710996 20.19276119 -7.50418512 16.6464309 -6.125 13 C-5.74021484 11.95199219 -5.74021484 11.95199219 -5.34765625 10.8828125 C-3.88789909 6.99501706 -2.28160072 3.49754362 0 0 Z " fill="#3F4143" transform="translate(830,459)"/>
<path d="M0 0 C0.99 0 1.98 0 3 0 C2.50104522 7.15168515 -0.31563815 13.41291281 -3 20 C-2.22269531 19.35546875 -1.44539062 18.7109375 -0.64453125 18.046875 C1.76780392 16.17972045 3.05604334 15.43614173 6 15 C5.65120368 18.25543229 4.97866739 19.01873107 2.4375 21.25 C1.633125 21.8275 0.82875 22.405 0 23 C0.56371414 26.26954202 1.49962266 27.82575883 4 30 C3.67 30.66 3.34 31.32 3 32 C0.64828869 31.40138258 -1.6859378 30.73075648 -4 30 C-4.495 29.01 -4.495 29.01 -5 28 C-5.33773437 28.5053125 -5.67546875 29.010625 -6.0234375 29.53125 C-6.46945312 30.1809375 -6.91546875 30.830625 -7.375 31.5 C-7.81585937 32.1496875 -8.25671875 32.799375 -8.7109375 33.46875 C-9.13632812 33.9740625 -9.56171875 34.479375 -10 35 C-10.66 35 -11.32 35 -12 35 C-11.67 32.69 -11.34 30.38 -11 28 C-14.59610316 32.16637712 -14.59610316 32.16637712 -17.5 36.8125 C-19 39 -19 39 -21.6875 39.8125 C-22.450625 39.874375 -23.21375 39.93625 -24 40 C-24.08912219 36.16774573 -23.87867729 32.73437848 -23 29 C-24.98 30.98 -26.96 32.96 -29 35 C-29.99 34.67 -30.98 34.34 -32 34 C-32.6875 31.9375 -32.6875 31.9375 -33 30 C-34.0828125 30.7734375 -34.0828125 30.7734375 -35.1875 31.5625 C-38.4195366 33.21442982 -39.61608307 33.06351675 -43 32 C-43.93669174 28.39239868 -44.20704495 26.50995638 -42.78515625 23.0078125 C-42.21667969 22.05648438 -41.64820313 21.10515625 -41.0625 20.125 C-40.49660156 19.15820312 -39.93070313 18.19140625 -39.34765625 17.1953125 C-38.90292969 16.47085937 -38.45820312 15.74640625 -38 15 C-37.34 15.33 -36.68 15.66 -36 16 C-36.66666667 20 -37.33333333 24 -38 28 C-32.77540259 25.03147875 -30.68647691 22.37295382 -28 17 C-27.01 17 -26.02 17 -25 17 C-25.165 18.11375 -25.33 19.2275 -25.5 20.375 C-26.0455458 23.72032033 -26.0455458 23.72032033 -26 26 C-22.95706926 22.46362104 -20.28538605 19.08963819 -18 15 C-17.01 15.33 -16.02 15.66 -15 16 C-15.66666667 20 -16.33333333 24 -17 28 C-11.25009883 22.99576325 -8.0637842 17.92594864 -5 11 C-4.53207031 9.98164063 -4.06414063 8.96328125 -3.58203125 7.9140625 C-2.37424266 5.281963 -1.1812873 2.64407285 0 0 Z " fill="#3C3D3E" transform="translate(868,469)"/>
<path d="M0 0 C0.66 0 1.32 0 2 0 C3.55019056 4.62582042 5.09839453 9.25229916 6.64477539 13.87939453 C7.17092451 15.4528186 7.69761244 17.0260626 8.22485352 18.59912109 C8.98335823 20.86248202 9.73991186 23.12648713 10.49609375 25.390625 C10.73154404 26.09181458 10.96699432 26.79300415 11.20957947 27.51544189 C12.2596041 30.66515553 13.19393526 33.77574102 14 37 C5.42 37 -3.16 37 -12 37 C-10.29946274 31.33154248 -8.61469748 25.71924175 -6.73828125 20.1171875 C-6.34189453 18.93125 -5.94550781 17.7453125 -5.53710938 16.5234375 C-5.13298828 15.31945312 -4.72886719 14.11546875 -4.3125 12.875 C-3.89677734 11.63234375 -3.48105469 10.3896875 -3.05273438 9.109375 C-2.03653337 6.07245246 -1.01892583 3.03600918 0 0 Z " fill="#FCFDFD" transform="translate(923,241)"/>
<path d="M0 0 C2.09160827 3.13741241 3.12152078 5.90118937 4.34765625 9.4609375 C4.56441513 10.08851959 4.78117401 10.71610168 5.00450134 11.36270142 C5.46122164 12.68835018 5.91581057 14.01473491 6.3684082 15.34179688 C7.05829308 17.36267668 7.75614705 19.38067101 8.45507812 21.3984375 C10.23785955 26.58604942 11.92122786 31.60613928 13 37 C4.42 37 -4.16 37 -13 37 C-11.31208093 31.89041692 -9.62239104 26.78149502 -7.92797852 21.67407227 C-7.35170451 19.93517156 -6.77650631 18.19591396 -6.20239258 16.45629883 C-5.37861894 13.96081199 -4.55102809 11.4666199 -3.72265625 8.97265625 C-3.46533218 8.19036148 -3.20800812 7.40806671 -2.94288635 6.60206604 C-1.11387171 1.11387171 -1.11387171 1.11387171 0 0 Z " fill="#FCFDFD" transform="translate(647,356)"/>
<path d="M0 0 C2.65027794 2.65027794 3.43056359 5.65015407 4.6015625 9.125 C4.8428891 9.8277002 5.0842157 10.53040039 5.33285522 11.25439453 C5.84155247 12.73960825 6.34739256 14.22580317 6.85058594 15.71289062 C7.62272471 17.9932803 8.40435493 20.27024474 9.1875 22.546875 C9.68025145 23.98939081 10.17245755 25.43209306 10.6640625 26.875 C10.89839996 27.55836426 11.13273743 28.24172852 11.37417603 28.94580078 C13 33.76804968 13 33.76804968 13 36 C4.75 36 -3.5 36 -12 36 C-8.04 24.12 -4.08 12.24 0 0 Z " fill="#FEFDFC" transform="translate(654,125)"/>
<path d="M0 0 C5.61 0 11.22 0 17 0 C17 30.69 17 61.38 17 93 C11.39 93 5.78 93 0 93 C0 62.31 0 31.62 0 0 Z M2 2 C2 31.37 2 60.74 2 91 C6.29 91 10.58 91 15 91 C15 61.63 15 32.26 15 2 C10.71 2 6.42 2 2 2 Z " fill="#2796A6" transform="translate(671,222)"/>
<path d="M0 0 C3.875 1.875 3.875 1.875 5 3 C5.63004492 8.75521805 5.08977821 12.97911041 2 18 C1.34 18 0.68 18 0 18 C0.66 13.38 1.32 8.76 2 4 C1.34 4 0.68 4 0 4 C-0.37125 5.134375 -0.7425 6.26875 -1.125 7.4375 C-2.20352972 10.68341003 -3.31906179 13.91407006 -4.46484375 17.13671875 C-4.72700684 17.87414307 -4.98916992 18.61156738 -5.25927734 19.37133789 C-5.78502602 20.84647043 -6.31262379 22.32094556 -6.84228516 23.79467773 C-8.39816109 28.16008141 -9.77407282 32.53035164 -11 37 C-5.555 36.505 -5.555 36.505 0 36 C-0.33 37.32 -0.66 38.64 -1 40 C-4.63 40.99 -8.26 41.98 -12 43 C-14.08671404 50.96745361 -15.7726922 58.85645176 -17 67 C-18.98 67.495 -18.98 67.495 -21 68 C-20.55046968 59.39691968 -19.13898002 51.34067679 -17 43 C-21.95 43.495 -21.95 43.495 -27 44 C-26 41 -26 41 -23.75 39.8125 C-20.99114017 38.99738232 -18.85259074 38.93777906 -16 39 C-15.78085937 38.030625 -15.56171875 37.06125 -15.3359375 36.0625 C-8.89813985 8.4744189 -8.89813985 8.4744189 0 0 Z " fill="#3A3D3E" transform="translate(776,454)"/>
<path d="M0 0 C5.61 0 11.22 0 17 0 C17 31.02 17 62.04 17 94 C11.39 94 5.78 94 0 94 C0 62.98 0 31.96 0 0 Z M2 2 C0.17761338 3.82238662 0.88002304 6.34756083 0.87557983 8.7724762 C0.87917511 9.60109665 0.88277039 10.4297171 0.88647461 11.28344727 C0.88632858 12.15166107 0.88618256 13.01987488 0.8860321 13.91439819 C0.88673154 16.79842586 0.89452537 19.6823898 0.90234375 22.56640625 C0.90420782 24.56037867 0.90563177 26.55435155 0.90663147 28.54832458 C0.91045752 33.80745702 0.92028855 39.06656203 0.93133545 44.32568359 C0.9415477 49.68782175 0.94612869 55.04996431 0.95117188 60.41210938 C0.96191074 70.94141833 0.9789882 81.47070689 1 92 C5.62 92 10.24 92 15 92 C15 62.3 15 32.6 15 2 C10.71 2 6.42 2 2 2 Z " fill="#D37C4F" transform="translate(580,105)"/>
<path d="M0 0 C0.66 0.66 1.32 1.32 2 2 C1.79914271 9.2224935 -0.85397119 15.41465982 -3.5 22.0625 C-7.22834839 31.28248524 -7.22834839 31.28248524 -9 41 C-10.485 41.495 -10.485 41.495 -12 42 C-13.125 38.25 -13.125 38.25 -12 36 C-12.99 35.67 -13.98 35.34 -15 35 C-14.34 33.35 -13.68 31.7 -13 30 C-13.66 30 -14.32 30 -15 30 C-15 30.66 -15 31.32 -15 32 C-16.32 32 -17.64 32 -19 32 C-18.3125 29.625 -18.3125 29.625 -17 27 C-14.5 25.625 -14.5 25.625 -12 25 C-11.34 25.33 -10.68 25.66 -10 26 C-9.89429688 25.34 -9.78859375 24.68 -9.6796875 24 C-8.81710996 20.19276119 -7.50418512 16.6464309 -6.125 13 C-5.74021484 11.95199219 -5.74021484 11.95199219 -5.34765625 10.8828125 C-3.88789909 6.99501706 -2.28160072 3.49754362 0 0 Z " fill="#38393A" transform="translate(830,459)"/>
<path d="M0 0 C0.66 0.33 1.32 0.66 2 1 C1.33333333 5 0.66666667 9 0 13 C5.22459741 10.03147875 7.31352309 7.37295382 10 2 C10.99 2 11.98 2 13 2 C11.73303167 11.23076923 11.73303167 11.23076923 11 14 C10.01 14.495 10.01 14.495 9 15 C9.33 16.32 9.66 17.64 10 19 C8.68 19 7.36 19 6 19 C5.67 17.68 5.34 16.36 5 15 C3.9171875 15.7734375 3.9171875 15.7734375 2.8125 16.5625 C-0.4195366 18.21442982 -1.61608307 18.06351675 -5 17 C-5.93669174 13.39239868 -6.20704495 11.50995638 -4.78515625 8.0078125 C-4.21667969 7.05648438 -3.64820313 6.10515625 -3.0625 5.125 C-2.49660156 4.15820312 -1.93070313 3.19140625 -1.34765625 2.1953125 C-0.90292969 1.47085937 -0.45820312 0.74640625 0 0 Z " fill="#444647" transform="translate(830,484)"/>
<path d="M0 0 C0.8971875 0.309375 0.8971875 0.309375 1.8125 0.625 C2.625 2.8125 2.625 2.8125 2.8125 5.625 C0.14930021 8.89693118 -2.39760014 10.86540364 -6.1875 12.625 C-6.5175 13.285 -6.8475 13.945 -7.1875 14.625 C-6.1975 14.955 -5.2075 15.285 -4.1875 15.625 C-4.5175 15.955 -4.8475 16.285 -5.1875 16.625 C-4.5275 17.285 -3.8675 17.945 -3.1875 18.625 C-5.5 18.875 -5.5 18.875 -8.1875 18.625 C-10.0625 17.0625 -10.0625 17.0625 -11.1875 14.625 C-11.1875 8.52998545 -9.26933707 5.80402367 -5.1875 1.625 C-2.1875 -0.375 -2.1875 -0.375 0 0 Z " fill="#424445" transform="translate(787.1875,485.375)"/>
<path d="M0 0 C0.66 0.33 1.32 0.66 2 1 C1.01 2.485 1.01 2.485 0 4 C1.32 4 2.64 4 4 4 C4 3.34 4 2.68 4 2 C4.66 2 5.32 2 6 2 C5.67 3.65 5.34 5.3 5 7 C5.66 7.33 6.32 7.66 7 8 C7 8.66 7 9.32 7 10 C5.61518672 10.87191947 4.21654754 11.72190384 2.8125 12.5625 C2.03519531 13.03816406 1.25789062 13.51382812 0.45703125 14.00390625 C-2.48360967 15.19605797 -4.00446363 14.88855164 -7 14 C-6.83951172 13.07767578 -6.83951172 13.07767578 -6.67578125 12.13671875 C-6.49595703 10.92435547 -6.49595703 10.92435547 -6.3125 9.6875 C-6.18488281 8.88699219 -6.05726563 8.08648437 -5.92578125 7.26171875 C-5.77257193 4.90350321 -5.77257193 4.90350321 -7.48046875 3.20703125 C-7.98191406 2.80871094 -8.48335937 2.41039062 -9 2 C-7.6078125 2.3403125 -7.6078125 2.3403125 -6.1875 2.6875 C-3.03173152 3.36319983 -3.03173152 3.36319983 -1.125 1.5625 C-0.75375 1.046875 -0.3825 0.53125 0 0 Z " fill="#3B3D3E" transform="translate(811,487)"/>
<path d="M0 0 C0.33 0.99 0.66 1.98 1 3 C0.34 3 -0.32 3 -1 3 C-0.67 4.65 -0.34 6.3 0 8 C-0.33 7.34 -0.66 6.68 -1 6 C-3.03502523 7.89040492 -3.03502523 7.89040492 -4.3125 10.0625 C-6 12 -6 12 -8.5 12.9375 C-11 13 -11 13 -12.625 11.5625 C-13.07875 11.046875 -13.5325 10.53125 -14 10 C-14.99 10 -15.98 10 -17 10 C-15.38405168 7.95880212 -13.7143618 5.95927063 -12 4 C-11.34 4 -10.68 4 -10 4 C-9.67 3.01 -9.34 2.02 -9 1 C-5.78578255 -1.29586961 -3.71609706 -1.03224918 0 0 Z " fill="#3F4142" transform="translate(888,486)"/>
<path d="M0 0 C0.99 0.33 1.98 0.66 3 1 C3 1.99 3 2.98 3 4 C4.670625 3.9690625 4.670625 3.9690625 6.375 3.9375 C10 4 10 4 12 5 C12 5.66 12 6.32 12 7 C11.03900391 7.05994141 11.03900391 7.05994141 10.05859375 7.12109375 C5.88556266 7.62484266 2.97467139 7.9817996 -0.01171875 11.1015625 C-1.15655382 12.72234024 -2.28471439 14.35504579 -3.39453125 16 C-5 18 -5 18 -8.4375 19.0625 C-9.7059375 19.0315625 -9.7059375 19.0315625 -11 19 C-9.99234093 15.79381206 -9.09431896 14.0893548 -6.625 11.75 C-3.26244784 8.22732631 -1.75121805 4.49055354 0 0 Z " fill="#353637" transform="translate(955,484)"/>
<path d="M0 0 C-0.34879632 3.25543229 -1.02133261 4.01873107 -3.5625 6.25 C-4.366875 6.8275 -5.17125 7.405 -6 8 C-5.43628586 11.26954202 -4.50037734 12.82575883 -2 15 C-2.33 15.66 -2.66 16.32 -3 17 C-5.35171131 16.40138258 -7.6859378 15.73075648 -10 15 C-10.33 14.34 -10.66 13.68 -11 13 C-11.33773437 13.5053125 -11.67546875 14.010625 -12.0234375 14.53125 C-12.46945312 15.1809375 -12.91546875 15.830625 -13.375 16.5 C-13.81585937 17.1496875 -14.25671875 17.799375 -14.7109375 18.46875 C-15.13632812 18.9740625 -15.56171875 19.479375 -16 20 C-16.66 20 -17.32 20 -18 20 C-17.49287967 16.28111761 -16.88391785 13.26545761 -15 10 C-14.67 10.33 -14.34 10.66 -14 11 C-13.54109375 10.45730469 -13.0821875 9.91460937 -12.609375 9.35546875 C-11.99578125 8.64003906 -11.3821875 7.92460937 -10.75 7.1875 C-10.14671875 6.47980469 -9.5434375 5.77210938 -8.921875 5.04296875 C-4.17782027 0 -4.17782027 0 0 0 Z " fill="#383A3B" transform="translate(874,484)"/>
<path d="M0 0 C0.66 0.66 1.32 1.32 2 2 C1.69380742 8.03748963 -0.41160417 13.33665243 -2.5625 18.9375 C-2.89185547 19.81212891 -3.22121094 20.68675781 -3.56054688 21.58789062 C-4.36737838 23.72774809 -5.18063181 25.86491864 -6 28 C-7.32 27.34 -8.64 26.68 -10 26 C-9.35778924 20.54560726 -7.56852253 15.81612614 -5.5625 10.75 C-5.09360352 9.52796875 -5.09360352 9.52796875 -4.61523438 8.28125 C-2.25601616 2.25601616 -2.25601616 2.25601616 0 0 Z " fill="#333434" transform="translate(937,459)"/>
<path d="M0 0 C3.36081523 1.12027174 3.97429735 1.93402422 6.125 4.625 C9.92111439 9.12831344 14.24881226 12.55242613 19 16 C14.91042769 17.36319077 12.36168597 15.87515655 8.5625 14.3125 C7.89412109 14.05533203 7.22574219 13.79816406 6.53710938 13.53320312 C2.56862862 11.93243834 -0.21946678 10.26410421 -3 7 C-2.34 6.67 -1.68 6.34 -1 6 C-0.34227572 2.97065509 -0.34227572 2.97065509 0 0 Z " fill="#E77E42" transform="translate(213,424)"/>
<path d="M0 0 C2.75356005 2.75356005 4.08458622 6.0931503 5.75 9.5625 C8.74766313 15.70083403 11.94967824 21.47683396 16 27 C15.34 27.33 14.68 27.66 14 28 C10.68179402 24.78883292 7.50981952 21.45301442 4.375 18.0625 C3.61960938 17.24910156 2.86421875 16.43570312 2.0859375 15.59765625 C-0.10202035 12.87295219 -1.55099627 10.1702725 -3 7 C-2.34 7 -1.68 7 -1 7 C-1.020625 6.030625 -1.04125 5.06125 -1.0625 4.0625 C-1 1 -1 1 0 0 Z " fill="#2DA6B2" transform="translate(221,414)"/>
<path d="M0 0 C0.99 0 1.98 0 3 0 C3.08322115 4.0778365 2.9127796 6.02624524 0.0703125 9.05859375 C-6.09107529 14.0786097 -6.09107529 14.0786097 -9.16796875 13.8125 C-11 13 -11 13 -13 11 C-14.31747324 10.30251417 -15.64914193 9.63040043 -17 9 C-14.625 7.4375 -14.625 7.4375 -12 6 C-11.34 6.33 -10.68 6.66 -10 7 C-10 7.99 -10 8.98 -10 10 C-6.98352894 8.78379415 -6.98352894 8.78379415 -4 7 C-3.27617533 4.94074861 -3.27617533 4.94074861 -3 3 C-2.01 2.67 -1.02 2.34 0 2 C0 1.34 0 0.68 0 0 Z " fill="#313233" transform="translate(887,489)"/>
<path d="M0 0 C1 1 1 1 1.1875 3.9375 C1 7 1 7 -1 9 C-2.66128463 9.35919668 -4.32900023 9.68911632 -6 10 C-7.6792238 10.63437344 -9.35008418 11.29289322 -11 12 C-10.34 9.69 -9.68 7.38 -9 5 C-8.34 5 -7.68 5 -7 5 C-7 3.68 -7 2.36 -7 1 C-4.51588385 -0.24205807 -2.74800896 -0.14092354 0 0 Z " fill="#404142" transform="translate(947,485)"/>
<path d="M0 0 C0.66 0.66 1.32 1.32 2 2 C1.71632906 7.57886187 0.7820431 12.13142458 -2 17 C-4.6875 17.9375 -4.6875 17.9375 -7 18 C-5.79662881 11.10796502 -3.67864914 5.93919307 0 0 Z " fill="#3F4343" transform="translate(830,459)"/>
<path d="M0 0 C0.66 0.33 1.32 0.66 2 1 C2 2.32 2 3.64 2 5 C1.01 5.66 0.02 6.32 -1 7 C-1.165 7.680625 -1.33 8.36125 -1.5 9.0625 C-1.665 9.701875 -1.83 10.34125 -2 11 C-2.99 11.33 -3.98 11.66 -5 12 C-5 12.66 -5 13.32 -5 14 C-7.66666667 12.66666667 -10.33333333 11.33333333 -13 10 C-12.154375 9.835 -11.30875 9.67 -10.4375 9.5 C-5.66957752 7.41945201 -3.16648082 4.02836317 0 0 Z " fill="#454647" transform="translate(921,489)"/>
<path d="M0 0 C0.99 0.33 1.98 0.66 3 1 C2.40075776 5.19469571 1.42500059 9.00999834 0 13 C-2.97 12.505 -2.97 12.505 -6 12 C-6 8.36804504 -5.04546845 7.25286089 -3 4.3125 C-2.443125 3.50425781 -1.88625 2.69601562 -1.3125 1.86328125 C-0.879375 1.24839844 -0.44625 0.63351562 0 0 Z " fill="#363839" transform="translate(850,484)"/>
<path d="M0 0 C0.12375 0.61875 0.2475 1.2375 0.375 1.875 C0.87197356 4.19120832 0.87197356 4.19120832 3 6 C1.35 7.65 -0.3 9.3 -2 11 C-2 10.34 -2 9.68 -2 9 C-5.3 9.33 -8.6 9.66 -12 10 C-11 7 -11 7 -8.75 5.8125 C-6.00208853 5.00061706 -3.84552111 4.83739879 -1 5 C-0.67 3.35 -0.34 1.7 0 0 Z " fill="#3A3D3E" transform="translate(761,488)"/>
<path d="M0 0 C0.99 0.33 1.98 0.66 3 1 C3 1.99 3 2.98 3 4 C4.670625 3.9690625 4.670625 3.9690625 6.375 3.9375 C10 4 10 4 12 5 C12 5.66 12 6.32 12 7 C10.06263299 7.16820551 8.12510094 7.33451095 6.1875 7.5 C4.56908203 7.63921875 4.56908203 7.63921875 2.91796875 7.78125 C0 8 0 8 -3 8 C-1.125 2.25 -1.125 2.25 0 0 Z " fill="#3B3E3F" transform="translate(955,484)"/>
<path d="M0 0 C0.99 0 1.98 0 3 0 C2.45144652 4.571279 1.58255197 8.67435795 0 13 C-1.66666667 13 -3.33333333 13 -5 13 C-4.54554036 11.58208592 -4.08625056 10.16571954 -3.625 8.75 C-3.24214844 7.56664062 -3.24214844 7.56664062 -2.8515625 6.359375 C-2.04826333 4.13372042 -1.10288338 2.09068328 0 0 Z " fill="#3A3E3F" transform="translate(868,469)"/>
<path d="M0 0 C0.99 0 1.98 0 3 0 C2.21863261 8.12622089 2.21863261 8.12622089 -1 11 C-2.65 11 -4.3 11 -6 11 C-4.02 7.37 -2.04 3.74 0 0 Z " fill="#333536" transform="translate(840,486)"/>
<path d="M0 0 C0.33 0 0.66 0 1 0 C1.95458649 8.35263176 2.11039334 16.59784035 2 25 C-0.54850464 22.05580648 -1.378227 20.32918943 -1.25 16.4375 C-1.22421875 15.57253906 -1.1984375 14.70757812 -1.171875 13.81640625 C-0.89010617 9.19923976 -0.48968782 4.59956773 0 0 Z " fill="#4BC0C9" transform="translate(214,354)"/>
<path d="M0 0 C0.66 0.33 1.32 0.66 2 1 C1.45660208 5.56454251 0.20536179 8.9728176 -2 13 C-2.99 13 -3.98 13 -5 13 C-5.83861979 7.63283335 -2.92070405 4.20372761 0 0 Z " fill="#3B3D3E" transform="translate(830,484)"/>
<path d="M0 0 C0.99 0.33 1.98 0.66 3 1 C3 2.32 3 3.64 3 5 C4.98 4.67 6.96 4.34 9 4 C8.25 5.9375 8.25 5.9375 7 8 C4.875 8.75 4.875 8.75 3 9 C3 8.34 3 7.68 3 7 C1.68 7.33 0.36 7.66 -1 8 C-1.93065133 5.39417629 -2.14917407 4.35801776 -1.0625 1.75 C-0.711875 1.1725 -0.36125 0.595 0 0 Z " fill="#474A4B" transform="translate(796,484)"/>
<path d="M0 0 C0.65355469 0.58007812 0.65355469 0.58007812 1.3203125 1.171875 C5.05744652 4.43984501 8.8076016 7.34140589 13 10 C9.29218328 11.23593891 8.32489747 10.5678132 4.8125 9.0625 C3.91144531 8.68222656 3.01039063 8.30195313 2.08203125 7.91015625 C1.05142578 7.45962891 1.05142578 7.45962891 0 7 C0.33 6.34 0.66 5.68 1 5 C0.72057545 3.32345271 0.39171753 1.65391846 0 0 Z " fill="#D47C49" transform="translate(219,430)"/>
<path d="M0 0 C0.33 0 0.66 0 1 0 C2.77541538 7.63600985 3.53430878 15.1812896 4 23 C3.01 23 2.02 23 1 23 C-0.06059488 15.31068715 -0.09928082 7.75493514 0 0 Z " fill="#FA8441" transform="translate(181,318)"/>
<path d="M0 0 C0.99 0.33 1.98 0.66 3 1 C3 1.99 3 2.98 3 4 C4.32 3.67 5.64 3.34 7 3 C7.33 4.32 7.66 5.64 8 7 C5.6875 7.6875 5.6875 7.6875 3 8 C1.4375 6.6875 1.4375 6.6875 0 5 C-2.09989652 3.82425289 -2.09989652 3.82425289 -4 3 C-2.1875 1.4375 -2.1875 1.4375 0 0 Z " fill="#363839" transform="translate(874,495)"/>
<path d="M0 0 C0.66 0.66 1.32 1.32 2 2 C1.69903201 6.13830989 1.32101984 8.51847024 -1 12 C-2.32 11.34 -3.64 10.68 -5 10 C-4.35699811 8.51960029 -3.71051501 7.04071218 -3.0625 5.5625 C-2.70285156 4.73878906 -2.34320312 3.91507812 -1.97265625 3.06640625 C-1 1 -1 1 0 0 Z " fill="#3B3D3D" transform="translate(937,459)"/>
<path d="M0 0 C0.66 0 1.32 0 2 0 C2 0.99 2 1.98 2 3 C1.34 3 0.68 3 0 3 C-0.13277344 3.84304688 -0.26554687 4.68609375 -0.40234375 5.5546875 C-0.57894531 6.65039062 -0.75554687 7.74609375 -0.9375 8.875 C-1.19853516 10.51082031 -1.19853516 10.51082031 -1.46484375 12.1796875 C-2 15 -2 15 -3 17 C-3.66 17 -4.32 17 -5 17 C-5.12375 17.94875 -5.2475 18.8975 -5.375 19.875 C-6 23 -6 23 -8 25 C-6.43889635 16.25781959 -3.21518143 8.24016625 0 0 Z " fill="#248895" transform="translate(483,261)"/>
<path d="M0 0 C0.66 0 1.32 0 2 0 C1.52432875 7.25398658 -0.29466594 13.26812223 -3 20 C-3.33 20 -3.66 20 -4 20 C-4 18.35 -4 16.7 -4 15 C-3.34 15 -2.68 15 -2 15 C-2.33 12.36 -2.66 9.72 -3 7 C-2.34 7 -1.68 7 -1 7 C-0.67 4.69 -0.34 2.38 0 0 Z " fill="#2AABB6" transform="translate(376,194)"/>
<path d="M0 0 C0.99 0.33 1.98 0.66 3 1 C2.07161713 2.31896465 1.13194268 3.62998689 0.1875 4.9375 C-0.59560547 6.03384766 -0.59560547 6.03384766 -1.39453125 7.15234375 C-3 9 -3 9 -6 10 C-6.33 9.01 -6.66 8.02 -7 7 C-2.88888889 1.44444444 -2.88888889 1.44444444 0 0 Z " fill="#36393A" transform="translate(784,486)"/>
<path d="M0 0 C3.71080883 4.42442592 6.84577733 9.17403931 10 14 C9.01 14.495 9.01 14.495 8 15 C1.20754717 8.39622642 1.20754717 8.39622642 -1 5 C-0.75 2.1875 -0.75 2.1875 0 0 Z " fill="#42AAB1" transform="translate(227,427)"/>
<path d="M0 0 C2.5 2.3125 2.5 2.3125 5 5 C5 5.99 5 6.98 5 8 C-1.64615385 6.52307692 -1.64615385 6.52307692 -3.4375 3.875 C-3.623125 3.25625 -3.80875 2.6375 -4 2 C-2.68 1.34 -1.36 0.68 0 0 Z " fill="#4A4C4C" transform="translate(866,493)"/>
<path d="M0 0 C-0.33 1.32 -0.66 2.64 -1 4 C-3.8125 4.625 -3.8125 4.625 -7 5 C-10 3 -10 3 -11 1 C-7.27569643 0.30710631 -3.78916254 -0.11144596 0 0 Z " fill="#434647" transform="translate(776,490)"/>
<path d="M0 0 C0.5775 0.226875 1.155 0.45375 1.75 0.6875 C0.76 1.3475 -0.23 2.0075 -1.25 2.6875 C-1.58 3.6775 -1.91 4.6675 -2.25 5.6875 C-5.20664519 7.1658226 -7.99229737 6.74782783 -11.25 6.6875 C-9.58784732 5.34854368 -7.92036393 4.01619858 -6.25 2.6875 C-5.569375 2.089375 -4.88875 1.49125 -4.1875 0.875 C-2.25 -0.3125 -2.25 -0.3125 0 0 Z " fill="#37393A" transform="translate(791.25,496.3125)"/>
<path d="M0 0 C3.81083711 6.5672924 2.06828067 14.78910546 1 22 C0.67 22 0.34 22 0 22 C-1.0773541 14.50824535 -0.8388516 7.51094816 0 0 Z " fill="#2E8B98" transform="translate(876,258)"/>
<path d="M0 0 C0.66 0.99 1.32 1.98 2 3 C1.16041203 5.85048923 0.2475567 8.4527608 -0.875 11.1875 C-1.17019531 11.93708984 -1.46539062 12.68667969 -1.76953125 13.45898438 C-2.5008398 15.31084636 -3.24885755 17.15609381 -4 19 C-4.66 17.68 -5.32 16.36 -6 15 C-5.34 15 -4.68 15 -4 15 C-3.896875 13.824375 -3.79375 12.64875 -3.6875 11.4375 C-3.17085042 7.17514097 -1.8491639 3.85912466 0 0 Z " fill="#1F8C9B" transform="translate(499,255)"/>
<path d="M0 0 C0.66 0 1.32 0 2 0 C1.67 1.32 1.34 2.64 1 4 C1.66 4 2.32 4 3 4 C2.3125 5.9375 2.3125 5.9375 1 8 C-1.625 8.75 -1.625 8.75 -4 9 C-2.25 2.25 -2.25 2.25 0 0 Z " fill="#E4E4E4" transform="translate(881,490)"/>
<path d="M0 0 C2.36253009 2.36253009 3.037848 4.31227271 4.1875 7.4375 C4.55230469 8.40558594 4.91710937 9.37367188 5.29296875 10.37109375 C6 13 6 13 5 16 C5 15.34 5 14.68 5 14 C4.34 14 3.68 14 3 14 C2.3012307 12.23358317 1.61633417 10.46167336 0.9375 8.6875 C0.55464844 7.70136719 0.17179688 6.71523438 -0.22265625 5.69921875 C-1 3 -1 3 0 0 Z " fill="#1B8B9A" transform="translate(957,288)"/>
<path d="M0 0 C0.33 0 0.66 0 1 0 C1 2.31 1 4.62 1 7 C1.66 7 2.32 7 3 7 C5.27678571 15.03571429 5.27678571 15.03571429 4 19 C1.30424981 13.84291269 -0.14795458 10.06091142 -0.0625 4.25 C-0.05347656 3.45078125 -0.04445313 2.6515625 -0.03515625 1.828125 C-0.02355469 1.22484375 -0.01195312 0.6215625 0 0 Z " fill="#D67A4C" transform="translate(506,126)"/>
<path d="M0 0 C3.68069887 1.53643852 5.98775204 3.78150945 8.75 6.625 C9.54921875 7.44226563 10.3484375 8.25953125 11.171875 9.1015625 C12.07679688 10.04128906 12.07679688 10.04128906 13 11 C12.01 11.33 11.02 11.66 10 12 C8.99403703 11.0479279 7.99538437 10.08812654 7 9.125 C6.443125 8.59132812 5.88625 8.05765625 5.3125 7.5078125 C4 6 4 6 4 4 C2.68 3.34 1.36 2.68 0 2 C0 1.34 0 0.68 0 0 Z " fill="#E1753B" transform="translate(197,129)"/>
<path d="M0 0 C2.3257718 3.48865769 3.45070844 7.03944811 4.6875 11 C4.92533203 11.72445313 5.16316406 12.44890625 5.40820312 13.1953125 C7.12049864 18.63850409 7.12049864 18.63850409 6 22 C5.67 20.35 5.34 18.7 5 17 C4.34 17 3.68 17 3 17 C2.49453964 14.91798472 1.99583165 12.83432933 1.5 10.75 C1.2215625 9.58984375 0.943125 8.4296875 0.65625 7.234375 C0 4 0 4 0 0 Z " fill="#CC784A" transform="translate(190,370)"/>
<path d="M0 0 C2.475 0.495 2.475 0.495 5 1 C5.33 1.99 5.66 2.98 6 4 C5.34 4 4.68 4 4 4 C4 3.34 4 2.68 4 2 C2.68 1.34 1.36 0.68 0 0 Z M-1 4 C0.65 4 2.3 4 4 4 C4.33 5.65 4.66 7.3 5 9 C4.67 8.34 4.34 7.68 4 7 C3.34 7.66 2.68 8.32 2 9 C1.01 9 0.02 9 -1 9 C-1 7.35 -1 5.7 -1 4 Z " fill="#4D4F51" transform="translate(883,485)"/>
<path d="M0 0 C0 1.65 0 3.3 0 5 C0.66 5 1.32 5 2 5 C1.34 6.65 0.68 8.3 0 10 C-0.33 10 -0.66 10 -1 10 C-1.33 8.02 -1.66 6.04 -2 4 C-3.65 3.67 -5.3 3.34 -7 3 C-7 2.34 -7 1.68 -7 1 C-4 0 -4 0 0 0 Z " fill="#404242" transform="translate(906,489)"/>
<path d="M0 0 C2.97 0.495 2.97 0.495 6 1 C6 1.66 6 2.32 6 3 C5.05125 3.268125 4.1025 3.53625 3.125 3.8125 C-0.25267273 4.74986588 -0.25267273 4.74986588 -2 8 C-2.99 7.67 -3.98 7.34 -5 7 C-4.34 6.01 -3.68 5.02 -3 4 C-2.34 4 -1.68 4 -1 4 C-0.67 2.68 -0.34 1.36 0 0 Z " fill="#303232" transform="translate(881,486)"/>
<path d="M0 0 C1.39211215 4.17633644 -0.0464421 5.78960515 -1.9375 9.6875 C-2.50339844 10.86699219 -3.06929687 12.04648437 -3.65234375 13.26171875 C-4.09707031 14.16535156 -4.54179688 15.06898438 -5 16 C-6.25955231 12.22134307 -5.48087189 10.96588214 -4.0625 7.3125 C-3.68222656 6.31863281 -3.30195312 5.32476562 -2.91015625 4.30078125 C-2.60980469 3.54152344 -2.30945313 2.78226562 -2 2 C-1.34 2 -0.68 2 0 2 C0 1.34 0 0.68 0 0 Z " fill="#208D9C" transform="translate(616,399)"/>
<path d="M0 0 C0.33 0 0.66 0 1 0 C0.67 6.27 0.34 12.54 0 19 C-0.33 19 -0.66 19 -1 19 C-1 15.37 -1 11.74 -1 8 C-1.66 8 -2.32 8 -3 8 C-3 6.35 -3 4.7 -3 3 C-2.34 3 -1.68 3 -1 3 C-0.67 2.01 -0.34 1.02 0 0 Z " fill="#2997A1" transform="translate(216,346)"/>
<path d="M0 0 C2.36253009 2.36253009 3.037848 4.31227271 4.1875 7.4375 C4.55230469 8.40558594 4.91710937 9.37367188 5.29296875 10.37109375 C6 13 6 13 5 16 C4.67 14.35 4.34 12.7 4 11 C3.34 11 2.68 11 2 11 C0.19769832 7.17010894 -0.19622241 4.21878192 0 0 Z " fill="#1F8491" transform="translate(452,230)"/>
<path d="M0 0 C0.33 0 0.66 0 1 0 C2.23316062 5.19689119 2.23316062 5.19689119 2 8 C0.23017948 10.29259828 -1.53077209 11.387443 -4 13 C-3.52140759 11.39566191 -3.04210442 9.79153584 -2.5625 8.1875 C-2.29566406 7.29417969 -2.02882813 6.40085938 -1.75390625 5.48046875 C-1.19612127 3.64526945 -0.60655425 1.81966274 0 0 Z " fill="#37A6B0" transform="translate(350,241)"/>
<path d="M0 0 C0.66 0.33 1.32 0.66 2 1 C1.25 6.75 1.25 6.75 -1 9 C-3.625 9.125 -3.625 9.125 -6 9 C-4.73046875 7.53515625 -3.4609375 6.0703125 -2.19140625 4.60546875 C-0.79128769 2.89287029 -0.79128769 2.89287029 0 0 Z " fill="#333537" transform="translate(788,486)"/>
<path d="M0 0 C1.98 0.495 1.98 0.495 4 1 C3.979375 1.78375 3.95875 2.5675 3.9375 3.375 C3.81315937 5.98114961 3.81315937 5.98114961 5 8 C3.125 7.6875 3.125 7.6875 1 7 C-1 4 -1 4 -0.625 1.8125 C-0.41875 1.214375 -0.2125 0.61625 0 0 Z " fill="#24AFBC" transform="translate(223,424)"/>
<path d="M0 0 C0.66 0 1.32 0 2 0 C1.4574852 4.55712436 0.3106498 8.02568234 -2 12 C-2.99 12.495 -2.99 12.495 -4 13 C-3.52343588 11.20763933 -3.04366502 9.41613103 -2.5625 7.625 C-2.29566406 6.62726563 -2.02882813 5.62953125 -1.75390625 4.6015625 C-1 2 -1 2 0 0 Z " fill="#188C9C" transform="translate(626,368)"/>
<path d="M0 0 C5.95507399 0.3916035 10.62819824 1.37124595 16 4 C13.2780754 5.3609623 11.8168043 4.70366248 8.875 4.0625 C7.96492187 3.86785156 7.05484375 3.67320312 6.1171875 3.47265625 C5.41851563 3.31667969 4.71984375 3.16070312 4 3 C4 2.34 4 1.68 4 1 C2.68 0.67 1.36 0.34 0 0 Z " fill="#1E8594" transform="translate(838,223)"/>
<path d="M0 0 C0.12375 0.61875 0.2475 1.2375 0.375 1.875 C0.87197356 4.19120832 0.87197356 4.19120832 3 6 C1.35 7.65 -0.3 9.3 -2 11 C-2 9.35 -2 7.7 -2 6 C-3.32 5.67 -4.64 5.34 -6 5 C-4.35 5 -2.7 5 -1 5 C-0.67 3.35 -0.34 1.7 0 0 Z " fill="#454748" transform="translate(761,488)"/>
<path d="M0 0 C0.721875 0.144375 1.44375 0.28875 2.1875 0.4375 C1.1975 2.4175 0.2075 4.3975 -0.8125 6.4375 C-1.8025 6.4375 -2.7925 6.4375 -3.8125 6.4375 C-5.15231486 6.7437434 -6.48761887 7.07201555 -7.8125 7.4375 C-3.69871444 0.57535558 -3.69871444 0.57535558 0 0 Z " fill="#303132" transform="translate(860.8125,490.5625)"/>
<path d="M0 0 C0.33 0 0.66 0 1 0 C0.50769231 6.4 0.50769231 6.4 -2.0625 9.4375 C-3.0215625 10.2109375 -3.0215625 10.2109375 -4 11 C-4.99 10.67 -5.98 10.34 -7 10 C-6.57847656 9.44570313 -6.15695312 8.89140625 -5.72265625 8.3203125 C-5.17480469 7.59585937 -4.62695312 6.87140625 -4.0625 6.125 C-3.51722656 5.40570313 -2.97195313 4.68640625 -2.41015625 3.9453125 C-0.96035376 2.05642921 -0.96035376 2.05642921 0 0 Z " fill="#1A8697" transform="translate(486,397)"/>
<path d="M0 0 C0.99 0.33 1.98 0.66 3 1 C3 3.31 3 5.62 3 8 C1.68 8.33 0.36 8.66 -1 9 C-0.67 6.03 -0.34 3.06 0 0 Z " fill="#303334" transform="translate(756,513)"/>
<path d="M0 0 C0.66 0 1.32 0 2 0 C0.64531705 4.87685861 -1.71675909 6.48592381 -6 9 C-5.4409112 5.75728494 -4.5867822 4.06942576 -2 2 C-1.34 2 -0.68 2 0 2 C0 1.34 0 0.68 0 0 Z " fill="#E0E1E1" transform="translate(815,489)"/>
<path d="M0 0 C0.66 0 1.32 0 2 0 C3.35439668 2.70879335 3.06501451 5.00933268 3 8 C3.66 8 4.32 8 5 8 C5.625 9.875 5.625 9.875 6 12 C5.34 12.66 4.68 13.32 4 14 C3.32739649 12.23141309 2.66211605 10.46003984 2 8.6875 C1.62875 7.70136719 1.2575 6.71523438 0.875 5.69921875 C0 3 0 3 0 0 Z " fill="#DD7A46" transform="translate(82,263)"/>
<path d="M0 0 C2 4 4 8 6 12 C5.01 13.485 5.01 13.485 4 15 C3.32243118 13.44219668 2.65840543 11.87849904 2 10.3125 C1.62875 9.44238281 1.2575 8.57226562 0.875 7.67578125 C-0.01870488 4.9427998 -0.16449676 2.85299066 0 0 Z " fill="#188E9F" transform="translate(443,244)"/>
<path d="M0 0 C0.99 0.495 0.99 0.495 2 1 C2.37890625 2.9609375 2.37890625 2.9609375 2.5625 5.375 C2.78753088 8.19477465 3.09554568 10.28663703 4 13 C3.5625 15.6875 3.5625 15.6875 3 18 C2.67 18 2.34 18 2 18 C1.34 12.06 0.68 6.12 0 0 Z " fill="#3CA2AD" transform="translate(202,363)"/>
<path d="M0 0 C0.66 0.33 1.32 0.66 2 1 C-0.31 3.64 -2.62 6.28 -5 9 C-5.33 7.68 -5.66 6.36 -6 5 C-4.02 3.35 -2.04 1.7 0 0 Z " fill="#E77B44" transform="translate(518,108)"/>
<path d="M0 0 C0.66 0.66 1.32 1.32 2 2 C1.01 2.495 1.01 2.495 0 3 C0.33 4.32 0.66 5.64 1 7 C-0.32 7 -1.64 7 -3 7 C-3.33 6.01 -3.66 5.02 -4 4 C-2.68 2.68 -1.36 1.36 0 0 Z " fill="#5E6061" transform="translate(839,496)"/>
<path d="M0 0 C0.33 0.99 0.66 1.98 1 3 C-3.82142857 8.22321429 -3.82142857 8.22321429 -8 9 C-7.04270084 7.87411986 -6.08412105 6.7493285 -5.125 5.625 C-4.59132813 4.99851562 -4.05765625 4.37203125 -3.5078125 3.7265625 C-2.38567993 2.44163349 -1.20628025 1.20628025 0 0 Z " fill="#F1F1F2" transform="translate(791,491)"/>
<path d="M0 0 C-0.3125 1.875 -0.3125 1.875 -1 4 C-1.99 4.66 -2.98 5.32 -4 6 C-5.32 5.34 -6.64 4.68 -8 4 C-3.375 0 -3.375 0 0 0 Z " fill="#4B4D4E" transform="translate(874,484)"/>
<path d="M0 0 C-1.5830577 4.2742558 -4.50568404 6.26531794 -8 9 C-8 6 -8 6 -6.7578125 4.39453125 C-5.94957031 3.61142578 -5.94957031 3.61142578 -5.125 2.8125 C-4.59132813 2.28269531 -4.05765625 1.75289062 -3.5078125 1.20703125 C-2 0 -2 0 0 0 Z " fill="#24A7B2" transform="translate(288,209)"/>
<path d="M0 0 C3 1 3 1 4.625 3.9375 C5.07875 4.948125 5.5325 5.95875 6 7 C6.33 7.66 6.66 8.32 7 9 C6.34 9.66 5.68 10.32 5 11 C4.16151196 9.54462432 3.32936066 8.08559627 2.5 6.625 C1.80390625 5.40683594 1.80390625 5.40683594 1.09375 4.1640625 C0 2 0 2 0 0 Z " fill="#DC743E" transform="translate(462,170)"/>
<path d="M0 0 C0.8125 1.6875 0.8125 1.6875 1 4 C-1.3125 6.75 -1.3125 6.75 -4 9 C-4.66 9 -5.32 9 -6 9 C-4.47291037 5.56404834 -2.40072955 2.88087546 0 0 Z " fill="#2BABB8" transform="translate(279,146)"/>
<path d="M0 0 C1.65 0.99 3.3 1.98 5 3 C4.67 3.66 4.34 4.32 4 5 C1.93359375 5.4140625 1.93359375 5.4140625 -0.5625 5.625 C-1.38878906 5.69976562 -2.21507812 5.77453125 -3.06640625 5.8515625 C-4.02353516 5.92503906 -4.02353516 5.92503906 -5 6 C-5 5.34 -5 4.68 -5 4 C-3.37373596 2.61767557 -1.7074998 1.28062485 0 0 Z " fill="#424242" transform="translate(931,496)"/>
<path d="M0 0 C0.33 0 0.66 0 1 0 C1 2.64 1 5.28 1 8 C-0.32 7.67 -1.64 7.34 -3 7 C-1.125 1.125 -1.125 1.125 0 0 Z " fill="#2B2F31" transform="translate(764,485)"/>
<path d="M0 0 C0.33 0.66 0.66 1.32 1 2 C-1.25 4.5625 -1.25 4.5625 -4 7 C-5.32 6.67 -6.64 6.34 -8 6 C-5.36 4.02 -2.72 2.04 0 0 Z " fill="#128594" transform="translate(853,290)"/>
<path d="M0 0 C0.33 0.66 0.66 1.32 1 2 C-0.20850753 5.07620099 -1.52221785 8.0444357 -3 11 C-3.66 11 -4.32 11 -5 11 C-3.77472971 6.94718288 -2.30119506 3.55639236 0 0 Z " fill="#2DA6B1" transform="translate(244,199)"/>
<path d="M0 0 C0.66 0.33 1.32 0.66 2 1 C1.04882866 2.1725131 0.08882991 3.33787015 -0.875 4.5 C-1.40867187 5.1496875 -1.94234375 5.799375 -2.4921875 6.46875 C-2.98976563 6.9740625 -3.48734375 7.479375 -4 8 C-4.66 8 -5.32 8 -6 8 C-4.55746343 4.63408134 -2.66735273 2.48952921 0 0 Z " fill="#E5E5E5" transform="translate(921,489)"/>
<path d="M0 0 C3.79588866 0.54226981 5.47211993 2.20127563 8 5 C7.67 5.99 7.34 6.98 7 8 C5.83035398 6.8572081 4.66435444 5.71068285 3.5 4.5625 C2.8503125 3.92441406 2.200625 3.28632813 1.53125 2.62890625 C0 1 0 1 0 0 Z " fill="#DD733D" transform="translate(154,386)"/>
<path d="M0 0 C1.98 0.99 1.98 0.99 4 2 C4 2.66 4 3.32 4 4 C5.45833358 5.62514468 5.45833358 5.62514468 7 7 C6.34 8.32 5.68 9.64 5 11 C4.35165346 9.730447 3.70642185 8.45930294 3.0625 7.1875 C2.70285156 6.47980469 2.34320312 5.77210938 1.97265625 5.04296875 C1 3 1 3 0 0 Z " fill="#1D8392" transform="translate(853,246)"/>
<path d="M0 0 C0.66 0.33 1.32 0.66 2 1 C2 1.99 2 2.98 2 4 C1.34 4 0.68 4 0 4 C-0.66 5.32 -1.32 6.64 -2 8 C-2.66 6.68 -3.32 5.36 -4 4 C-2.68 2.68 -1.36 1.36 0 0 Z " fill="#414548" transform="translate(776,454)"/>
<path d="M0 0 C4 6 4 6 4 10 C3.34 10 2.68 10 2 10 C1.01 7.03 0.02 4.06 -1 1 C-0.67 0.67 -0.34 0.34 0 0 Z " fill="#DD7D45" transform="translate(197,392)"/>
<path d="M0 0 C0.33 0 0.66 0 1 0 C1.33 4.29 1.66 8.58 2 13 C1.01 13 0.02 13 -1 13 C-0.67 8.71 -0.34 4.42 0 0 Z " fill="#D88050" transform="translate(183,328)"/>
<path d="M0 0 C0.6875 1.6875 0.6875 1.6875 1 4 C-0.25 6.6875 -0.25 6.6875 -2 9 C-2.99 9.33 -3.98 9.66 -5 10 C-3.66511872 6.40608886 -2.03977277 3.24509304 0 0 Z " fill="#2AA7B2" transform="translate(252,185)"/>
<path d="M0 0 C0.66 0.33 1.32 0.66 2 1 C1.01 2.485 1.01 2.485 0 4 C0.66 4.33 1.32 4.66 2 5 C0.68 5.99 -0.64 6.98 -2 8 C-2.6875 5.6875 -2.6875 5.6875 -3 3 C-1.5625 1.1875 -1.5625 1.1875 0 0 Z " fill="#434547" transform="translate(811,487)"/>
<path d="M0 0 C0.99 0 1.98 0 3 0 C2.25 5.75 2.25 5.75 0 8 C-0.99 7.67 -1.98 7.34 -3 7 C-1.68 5.35 -0.36 3.7 1 2 C0.67 1.34 0.34 0.68 0 0 Z " fill="#949697" transform="translate(785,485)"/>
<path d="M0 0 C0.99 0 1.98 0 3 0 C2.74438677 2.3431213 2.40729228 4.67843403 2 7 C1.01 7.495 1.01 7.495 0 8 C-1.125 2.25 -1.125 2.25 0 0 Z " fill="#3B3B3D" transform="translate(840,486)"/>
<path d="M0 0 C2.1385485 2.1385485 2.42655063 3.13275314 3 6 C1.35 6 -0.3 6 -2 6 C-2.33 5.01 -2.66 4.02 -3 3 C-2.01 2.01 -1.02 1.02 0 0 Z " fill="#F18544" transform="translate(218,430)"/>
<path d="M0 0 C0.99 0 1.98 0 3 0 C4.42944945 2.35438733 5.08661261 3.48032433 4.625 6.25 C4.41875 6.8275 4.2125 7.405 4 8 C0 2.25 0 2.25 0 0 Z " fill="#198595" transform="translate(753,297)"/>
<path d="M0 0 C2.10388569 -0.05402274 4.20816714 -0.09280256 6.3125 -0.125 C8.07013672 -0.15980469 8.07013672 -0.15980469 9.86328125 -0.1953125 C13 0 13 0 16 2 C14.0625 2.5625 14.0625 2.5625 12 3 C11.67 2.67 11.34 2.34 11 2 C9.15108054 1.76636119 7.29511969 1.58696365 5.4375 1.4375 C4.42558594 1.35371094 3.41367187 1.26992187 2.37109375 1.18359375 C1.19740234 1.09271484 1.19740234 1.09271484 0 1 C0 0.67 0 0.34 0 0 Z " fill="#2AC2CE" transform="translate(319,191)"/>
<path d="M0 0 C-1.50223584 4.20626034 -4.28550034 5.73900021 -8 8 C-6.48291727 4.46014029 -4.24676932 0 0 0 Z " fill="#F1F1F1" transform="translate(944,489)"/>
<path d="M0 0 C0.99 0 1.98 0 3 0 C2.67 2.31 2.34 4.62 2 7 C1.67 6.01 1.34 5.02 1 4 C0.34 4 -0.32 4 -1 4 C-0.67 2.68 -0.34 1.36 0 0 Z " fill="#454848" transform="translate(868,469)"/>
<path d="M0 0 C2.125 0.9375 2.125 0.9375 4 2 C2.68 3.32 1.36 4.64 0 6 C-0.66 4.35 -1.32 2.7 -2 1 C-1.34 0.67 -0.68 0.34 0 0 Z " fill="#2BA9B5" transform="translate(355,238)"/>
<path d="M0 0 C3.0916909 2.52956528 3.90931332 5.22454612 5 9 C2 8 2 8 0.8125 6.1875 C0 4 0 4 0 0 Z " fill="#29A4AE" transform="translate(371,114)"/>
<path d="M0 0 C2.0625 0.4375 2.0625 0.4375 4 1 C1.03 3.475 1.03 3.475 -2 6 C-1.125 1.125 -1.125 1.125 0 0 Z " fill="#EA8148" transform="translate(87,100)"/>
<path d="M0 0 C1 2 1 2 0.0625 5.125 C-0.288125 6.07375 -0.63875 7.0225 -1 8 C-1.66 7.34 -2.32 6.68 -3 6 C-3.99 6.495 -3.99 6.495 -5 7 C-3.70700306 4.11562221 -2.34058637 2.12780579 0 0 Z " fill="#E4E4E4" transform="translate(857,496)"/>
<path d="M0 0 C0.928125 0.2784375 0.928125 0.2784375 1.875 0.5625 C4.04160178 1.23686176 4.04160178 1.23686176 6 0 C6 1.32 6 2.64 6 4 C3.03 3.505 3.03 3.505 0 3 C0 2.01 0 1.02 0 0 Z " fill="#313233" transform="translate(844,493)"/>
<path d="M0 0 C0.99 0.33 1.98 0.66 3 1 C2.67 3.64 2.34 6.28 2 9 C1.67 9 1.34 9 1 9 C1 6.69 1 4.38 1 2 C0.34 1.67 -0.32 1.34 -1 1 C-0.67 0.67 -0.34 0.34 0 0 Z " fill="#303132" transform="translate(777,455)"/>
<path d="M0 0 C-0.99 0.66 -1.98 1.32 -3 2 C-3.66 1.67 -4.32 1.34 -5 1 C-5.33 1.66 -5.66 2.32 -6 3 C-7.65 2.67 -9.3 2.34 -11 2 C-11 1.67 -11 1.34 -11 1 C-3.57142857 -1.42857143 -3.57142857 -1.42857143 0 0 Z " fill="#1A7D8B" transform="translate(846,298)"/>
<path d="M0 0 C0.66 0 1.32 0 2 0 C0.90931332 3.77545388 0.0916909 6.47043472 -3 9 C-3 7.68 -3 6.36 -3 5 C-2.34 5 -1.68 5 -1 5 C-0.67 3.35 -0.34 1.7 0 0 Z " fill="#31A5AF" transform="translate(244,265)"/>
<path d="M0 0 C3.2542015 2.83430453 4.5206753 4.68607774 5 9 C4.67 8.34 4.34 7.68 4 7 C3.34 7 2.68 7 2 7 C0.5393715 4.35261084 0 3.10551666 0 0 Z " fill="#D5723E" transform="translate(268,108)"/>
</svg>
