<svg xmlns="http://www.w3.org/2000/svg" width="1024" height="1024" viewBox="0 0 933 933" role="img" aria-label="Sentra Artificial Intelligence icon mark">
  <!-- Generated brand asset based on the supplied Sentra AI 2026 mark. Keep path proportions unchanged. -->
  <path d="M 739.0 433.0 L 725.0 417.0 L 724.0 417.0 L 716.0 409.0 L 715.0 409.0 L 712.0 406.0 L 711.0 406.0 L 708.0 403.0 L 707.0 403.0 L 702.0 399.0 L 695.0 396.0 L 693.0 394.0 L 689.0 392.0 L 687.0 392.0 L 677.0 387.0 L 675.0 387.0 L 674.0 386.0 L 672.0 386.0 L 668.0 384.0 L 665.0 384.0 L 664.0 383.0 L 660.0 383.0 L 659.0 382.0 L 655.0 382.0 L 654.0 381.0 L 649.0 381.0 L 648.0 380.0 L 616.0 380.0 L 615.0 381.0 L 609.0 381.0 L 608.0 382.0 L 604.0 382.0 L 603.0 383.0 L 600.0 383.0 L 599.0 384.0 L 596.0 384.0 L 595.0 385.0 L 592.0 385.0 L 591.0 386.0 L 589.0 386.0 L 588.0 387.0 L 583.0 388.0 L 576.0 392.0 L 574.0 392.0 L 566.0 396.0 L 564.0 398.0 L 561.0 399.0 L 559.0 401.0 L 555.0 403.0 L 546.0 411.0 L 545.0 411.0 L 533.0 423.0 L 532.0 423.0 L 520.0 435.0 L 519.0 435.0 L 506.0 448.0 L 505.0 448.0 L 494.0 459.0 L 493.0 459.0 L 479.0 473.0 L 478.0 473.0 L 450.0 500.0 L 449.0 500.0 L 421.0 527.0 L 420.0 527.0 L 404.0 543.0 L 403.0 543.0 L 387.0 559.0 L 386.0 559.0 L 376.0 569.0 L 375.0 569.0 L 365.0 579.0 L 364.0 579.0 L 355.0 588.0 L 354.0 588.0 L 345.0 597.0 L 344.0 597.0 L 323.0 617.0 L 322.0 617.0 L 314.0 625.0 L 313.0 625.0 L 303.0 635.0 L 302.0 635.0 L 283.0 653.0 L 282.0 653.0 L 273.0 662.0 L 272.0 662.0 L 254.0 679.0 L 253.0 679.0 L 243.0 689.0 L 242.0 689.0 L 233.0 698.0 L 232.0 698.0 L 210.0 719.0 L 209.0 719.0 L 199.0 729.0 L 198.0 729.0 L 182.0 745.0 L 182.0 746.0 L 176.0 754.0 L 173.0 760.0 L 173.0 762.0 L 172.0 763.0 L 172.0 765.0 L 170.0 769.0 L 170.0 772.0 L 169.0 773.0 L 169.0 779.0 L 168.0 780.0 L 168.0 786.0 L 169.0 787.0 L 169.0 793.0 L 170.0 794.0 L 170.0 797.0 L 171.0 798.0 L 172.0 803.0 L 177.0 813.0 L 180.0 816.0 L 180.0 817.0 L 189.0 826.0 L 190.0 826.0 L 196.0 831.0 L 204.0 835.0 L 206.0 835.0 L 209.0 837.0 L 211.0 837.0 L 212.0 838.0 L 216.0 838.0 L 217.0 839.0 L 221.0 839.0 L 222.0 840.0 L 450.0 840.0 L 451.0 839.0 L 456.0 839.0 L 457.0 838.0 L 461.0 838.0 L 462.0 837.0 L 464.0 837.0 L 465.0 836.0 L 467.0 836.0 L 468.0 835.0 L 473.0 834.0 L 485.0 828.0 L 487.0 826.0 L 491.0 824.0 L 495.0 820.0 L 496.0 820.0 L 509.0 807.0 L 510.0 807.0 L 521.0 796.0 L 522.0 796.0 L 532.0 786.0 L 533.0 786.0 L 544.0 775.0 L 545.0 775.0 L 556.0 764.0 L 557.0 764.0 L 569.0 752.0 L 570.0 752.0 L 580.0 742.0 L 581.0 742.0 L 592.0 731.0 L 593.0 731.0 L 603.0 721.0 L 604.0 721.0 L 615.0 710.0 L 616.0 710.0 L 627.0 699.0 L 628.0 699.0 L 649.0 679.0 L 650.0 679.0 L 660.0 669.0 L 661.0 669.0 L 670.0 660.0 L 671.0 660.0 L 704.0 628.0 L 705.0 628.0 L 724.0 609.0 L 725.0 609.0 L 731.0 603.0 L 731.0 602.0 L 738.0 595.0 L 738.0 594.0 L 741.0 591.0 L 741.0 590.0 L 749.0 579.0 L 757.0 563.0 L 757.0 561.0 L 758.0 560.0 L 758.0 558.0 L 759.0 557.0 L 759.0 555.0 L 760.0 554.0 L 760.0 552.0 L 762.0 548.0 L 762.0 545.0 L 763.0 544.0 L 763.0 540.0 L 764.0 539.0 L 764.0 535.0 L 765.0 534.0 L 765.0 528.0 L 766.0 527.0 L 766.0 500.0 L 765.0 499.0 L 765.0 493.0 L 764.0 492.0 L 764.0 488.0 L 763.0 487.0 L 763.0 484.0 L 762.0 483.0 L 762.0 480.0 L 761.0 479.0 L 761.0 476.0 L 760.0 475.0 L 760.0 473.0 L 759.0 472.0 L 758.0 467.0 L 755.0 462.0 L 755.0 460.0 L 750.0 450.0 L 748.0 448.0 L 747.0 445.0 L 745.0 443.0 L 745.0 442.0 L 743.0 440.0 L 743.0 439.0 L 741.0 437.0 Z M 650.0 505.0 L 652.0 509.0 L 652.0 511.0 L 653.0 512.0 L 653.0 518.0 L 652.0 519.0 L 652.0 521.0 L 649.0 527.0 L 621.0 554.0 L 620.0 554.0 L 608.0 566.0 L 607.0 566.0 L 596.0 577.0 L 595.0 577.0 L 570.0 601.0 L 569.0 601.0 L 558.0 612.0 L 557.0 612.0 L 546.0 623.0 L 545.0 623.0 L 518.0 649.0 L 517.0 649.0 L 494.0 671.0 L 493.0 671.0 L 483.0 681.0 L 482.0 681.0 L 472.0 691.0 L 471.0 691.0 L 461.0 701.0 L 460.0 701.0 L 450.0 711.0 L 449.0 711.0 L 439.0 721.0 L 438.0 721.0 L 428.0 731.0 L 427.0 731.0 L 412.0 745.0 L 406.0 748.0 L 401.0 748.0 L 400.0 749.0 L 376.0 749.0 L 375.0 748.0 L 368.0 748.0 L 366.0 747.0 L 363.0 744.0 L 363.0 740.0 L 378.0 725.0 L 379.0 725.0 L 391.0 713.0 L 392.0 713.0 L 404.0 701.0 L 405.0 701.0 L 417.0 689.0 L 418.0 689.0 L 430.0 677.0 L 431.0 677.0 L 444.0 664.0 L 445.0 664.0 L 458.0 651.0 L 459.0 651.0 L 471.0 639.0 L 472.0 639.0 L 484.0 627.0 L 485.0 627.0 L 498.0 614.0 L 499.0 614.0 L 512.0 601.0 L 513.0 601.0 L 525.0 589.0 L 526.0 589.0 L 538.0 577.0 L 539.0 577.0 L 551.0 565.0 L 552.0 565.0 L 564.0 553.0 L 565.0 553.0 L 577.0 541.0 L 578.0 541.0 L 588.0 531.0 L 589.0 531.0 L 601.0 519.0 L 602.0 519.0 L 621.0 501.0 L 629.0 497.0 L 639.0 497.0 L 645.0 500.0 Z M 732.0 124.0 L 724.0 116.0 L 723.0 116.0 L 718.0 112.0 L 712.0 109.0 L 710.0 109.0 L 706.0 107.0 L 703.0 107.0 L 702.0 106.0 L 697.0 106.0 L 696.0 105.0 L 684.0 105.0 L 683.0 104.0 L 668.0 104.0 L 667.0 103.0 L 652.0 103.0 L 651.0 102.0 L 636.0 102.0 L 635.0 101.0 L 619.0 101.0 L 618.0 100.0 L 601.0 100.0 L 600.0 99.0 L 584.0 99.0 L 583.0 98.0 L 568.0 98.0 L 567.0 97.0 L 552.0 97.0 L 551.0 96.0 L 534.0 96.0 L 533.0 95.0 L 517.0 95.0 L 516.0 94.0 L 498.0 94.0 L 497.0 93.0 L 469.0 93.0 L 468.0 94.0 L 462.0 94.0 L 461.0 95.0 L 457.0 95.0 L 456.0 96.0 L 449.0 97.0 L 448.0 98.0 L 443.0 99.0 L 440.0 101.0 L 438.0 101.0 L 435.0 103.0 L 433.0 103.0 L 429.0 105.0 L 427.0 107.0 L 422.0 109.0 L 420.0 111.0 L 416.0 113.0 L 413.0 116.0 L 412.0 116.0 L 398.0 130.0 L 397.0 130.0 L 374.0 152.0 L 373.0 152.0 L 363.0 162.0 L 362.0 162.0 L 352.0 172.0 L 351.0 172.0 L 340.0 183.0 L 339.0 183.0 L 330.0 192.0 L 329.0 192.0 L 317.0 204.0 L 316.0 204.0 L 306.0 214.0 L 305.0 214.0 L 295.0 224.0 L 294.0 224.0 L 283.0 235.0 L 282.0 235.0 L 273.0 244.0 L 272.0 244.0 L 261.0 255.0 L 260.0 255.0 L 249.0 266.0 L 248.0 266.0 L 237.0 277.0 L 236.0 277.0 L 225.0 288.0 L 224.0 288.0 L 213.0 299.0 L 212.0 299.0 L 200.0 311.0 L 199.0 311.0 L 197.0 313.0 L 197.0 314.0 L 191.0 320.0 L 191.0 321.0 L 185.0 329.0 L 180.0 339.0 L 180.0 341.0 L 179.0 342.0 L 179.0 344.0 L 177.0 348.0 L 176.0 355.0 L 175.0 356.0 L 175.0 362.0 L 174.0 363.0 L 174.0 372.0 L 175.0 373.0 L 175.0 379.0 L 176.0 380.0 L 176.0 384.0 L 177.0 385.0 L 177.0 388.0 L 180.0 394.0 L 180.0 396.0 L 182.0 400.0 L 188.0 408.0 L 188.0 409.0 L 198.0 419.0 L 199.0 419.0 L 204.0 423.0 L 208.0 425.0 L 210.0 425.0 L 215.0 428.0 L 218.0 428.0 L 219.0 429.0 L 222.0 429.0 L 223.0 430.0 L 229.0 430.0 L 230.0 431.0 L 236.0 431.0 L 237.0 430.0 L 244.0 430.0 L 245.0 429.0 L 249.0 429.0 L 250.0 428.0 L 252.0 428.0 L 255.0 426.0 L 257.0 426.0 L 263.0 423.0 L 269.0 418.0 L 270.0 418.0 L 287.0 401.0 L 288.0 401.0 L 301.0 388.0 L 302.0 388.0 L 316.0 374.0 L 317.0 374.0 L 331.0 360.0 L 332.0 360.0 L 346.0 346.0 L 347.0 346.0 L 377.0 317.0 L 378.0 317.0 L 388.0 307.0 L 389.0 307.0 L 416.0 281.0 L 417.0 281.0 L 440.0 259.0 L 441.0 259.0 L 452.0 248.0 L 453.0 248.0 L 466.0 235.0 L 467.0 235.0 L 477.0 225.0 L 478.0 225.0 L 491.0 212.0 L 492.0 212.0 L 503.0 201.0 L 504.0 201.0 L 517.0 188.0 L 518.0 188.0 L 521.0 185.0 L 523.0 184.0 L 525.0 184.0 L 526.0 183.0 L 528.0 183.0 L 529.0 182.0 L 544.0 182.0 L 545.0 183.0 L 560.0 183.0 L 561.0 184.0 L 564.0 184.0 L 566.0 185.0 L 569.0 188.0 L 569.0 192.0 L 568.0 194.0 L 560.0 202.0 L 559.0 202.0 L 535.0 225.0 L 534.0 225.0 L 523.0 236.0 L 522.0 236.0 L 508.0 250.0 L 507.0 250.0 L 496.0 261.0 L 495.0 261.0 L 484.0 272.0 L 483.0 272.0 L 470.0 285.0 L 469.0 285.0 L 444.0 309.0 L 443.0 309.0 L 433.0 319.0 L 432.0 319.0 L 420.0 331.0 L 419.0 331.0 L 409.0 341.0 L 408.0 341.0 L 399.0 350.0 L 398.0 350.0 L 388.0 360.0 L 387.0 360.0 L 369.0 377.0 L 368.0 377.0 L 359.0 386.0 L 358.0 386.0 L 347.0 397.0 L 346.0 397.0 L 337.0 406.0 L 336.0 406.0 L 325.0 417.0 L 324.0 417.0 L 315.0 426.0 L 314.0 426.0 L 295.0 444.0 L 294.0 444.0 L 286.0 452.0 L 285.0 452.0 L 277.0 460.0 L 277.0 461.0 L 274.0 464.0 L 269.0 474.0 L 269.0 476.0 L 267.0 479.0 L 267.0 482.0 L 266.0 483.0 L 266.0 489.0 L 265.0 490.0 L 265.0 495.0 L 266.0 496.0 L 266.0 501.0 L 267.0 502.0 L 267.0 505.0 L 268.0 506.0 L 268.0 508.0 L 269.0 509.0 L 270.0 514.0 L 272.0 518.0 L 276.0 523.0 L 276.0 524.0 L 285.0 533.0 L 286.0 533.0 L 292.0 538.0 L 298.0 541.0 L 300.0 541.0 L 303.0 543.0 L 305.0 543.0 L 306.0 544.0 L 309.0 544.0 L 310.0 545.0 L 316.0 545.0 L 317.0 546.0 L 330.0 546.0 L 331.0 545.0 L 336.0 545.0 L 337.0 544.0 L 340.0 544.0 L 346.0 541.0 L 348.0 541.0 L 354.0 538.0 L 356.0 536.0 L 357.0 536.0 L 372.0 522.0 L 373.0 522.0 L 384.0 511.0 L 385.0 511.0 L 405.0 492.0 L 406.0 492.0 L 417.0 481.0 L 418.0 481.0 L 441.0 459.0 L 442.0 459.0 L 452.0 449.0 L 453.0 449.0 L 465.0 437.0 L 466.0 437.0 L 476.0 427.0 L 477.0 427.0 L 487.0 417.0 L 488.0 417.0 L 499.0 406.0 L 500.0 406.0 L 511.0 395.0 L 512.0 395.0 L 523.0 384.0 L 524.0 384.0 L 536.0 372.0 L 537.0 372.0 L 547.0 362.0 L 548.0 362.0 L 557.0 353.0 L 558.0 353.0 L 570.0 341.0 L 571.0 341.0 L 580.0 332.0 L 581.0 332.0 L 604.0 310.0 L 605.0 310.0 L 615.0 300.0 L 616.0 300.0 L 626.0 290.0 L 627.0 290.0 L 637.0 280.0 L 638.0 280.0 L 648.0 270.0 L 649.0 270.0 L 659.0 260.0 L 660.0 260.0 L 671.0 249.0 L 672.0 249.0 L 682.0 239.0 L 683.0 239.0 L 694.0 228.0 L 695.0 228.0 L 707.0 216.0 L 708.0 216.0 L 724.0 201.0 L 724.0 200.0 L 729.0 195.0 L 729.0 194.0 L 733.0 189.0 L 736.0 183.0 L 736.0 181.0 L 739.0 175.0 L 739.0 172.0 L 740.0 171.0 L 740.0 167.0 L 741.0 166.0 L 741.0 146.0 L 740.0 145.0 L 740.0 141.0 L 739.0 140.0 L 738.0 135.0 L 734.0 127.0 L 732.0 125.0 Z" fill="#FFFFFF" fill-rule="evenodd"/>
</svg>
