<?xml version="1.0" encoding="UTF-8"?>
<svg xmlns="http://www.w3.org/2000/svg" width="33" height="33" viewBox="0 0 33 33" fill="none">
  <path d="M22.5257 6.15729C22.5257 5.24483 23.2654 4.50514 24.1779 4.50514H25.3787C26.2912 4.50514 27.0309 3.76545 27.0309 2.85299V1.65215C27.0309 0.739692 27.7706 -7.97695e-08 28.683 0L30.3787 1.48238e-07C31.2911 2.28008e-07 32.0308 0.739693 32.0308 1.65215V3.34789C32.0308 4.26035 31.2911 5.00004 30.3787 5.00004H29.1778C28.2654 5.00004 27.5257 5.73974 27.5257 6.65219V7.85304C27.5257 8.76549 26.786 9.50519 25.8735 9.50519L24.1779 9.50519C23.2654 9.50519 22.5257 8.76549 22.5257 7.85304V6.15729Z" fill="#DADADA"></path>
  <path d="M4.50515 6.7523C4.50515 5.83985 3.76545 5.10016 2.853 5.10016H1.65215C0.739694 5.10016 2.27459e-06 4.36046 2.35436e-06 3.44801L2.50261e-06 1.75226C2.58238e-06 0.839804 0.739695 0.100112 1.65215 0.100112L3.3478 0.100112C4.26026 0.100112 4.99995 0.839804 4.99995 1.75226L4.99995 2.85299C4.99995 3.76545 5.73964 4.50514 6.6521 4.50514H7.85294C8.7654 4.50514 9.50509 5.24483 9.50509 6.15729V7.85304C9.50509 8.76549 8.7654 9.50518 7.85294 9.50518L6.15729 9.50518C5.24484 9.50518 4.50515 8.76549 4.50515 7.85303V6.7523Z" fill="#DADADA"></path>
  <path fill-rule="evenodd" clip-rule="evenodd" d="M13.5154 20.2244C13.5154 19.312 12.7757 18.5723 11.8633 18.5723H9.03869C9.023 18.5723 9.01029 18.5596 9.01029 18.5439C9.01029 18.5282 8.99757 18.5155 8.98189 18.5155H6.15729C5.24484 18.5155 4.50514 17.7758 4.50514 16.8633V15.1676C4.50514 14.2551 5.24484 13.5154 6.15729 13.5154H9.47664C9.49235 13.5154 9.50509 13.5282 9.50509 13.5439C9.50509 13.5596 9.51783 13.5723 9.53354 13.5723H11.8633C12.7757 13.5723 13.5154 12.8326 13.5154 11.9202V6.15729C13.5154 5.24483 14.2551 4.50514 15.1676 4.50514H16.8632C17.7757 4.50514 18.5154 5.24483 18.5154 6.15729V11.8633C18.5154 12.7757 19.2551 13.5154 20.1675 13.5154H25.8735C26.786 13.5154 27.5257 14.2551 27.5257 15.1676V16.8633C27.5257 17.7758 26.786 18.5155 25.8735 18.5155H20.1675C19.2551 18.5155 18.5154 19.2552 18.5154 20.1676L18.5154 25.9737C18.5154 26.8862 17.7757 27.6259 16.8632 27.6259H15.1676C14.2551 27.6259 13.5154 26.8862 13.5154 25.9737L13.5154 20.2244ZM16.3684 18.0775C17.2809 18.0775 18.0206 17.3378 18.0206 16.4253V15.6904C18.0206 14.778 17.2809 14.0383 16.3684 14.0383H15.6624C14.7499 14.0383 14.0102 14.778 14.0102 15.6904V16.4253C14.0102 17.3378 14.7499 18.0775 15.6624 18.0775H16.3684Z" fill="#DADADA"></path>
  <path d="M1.48247e-07 28.683C2.28016e-07 27.7705 0.739693 27.0309 1.65215 27.0309H2.85299C3.76545 27.0309 4.50514 26.2912 4.50514 25.3787V24.1779C4.50514 23.2654 5.24484 22.5257 6.15729 22.5257H7.85294C8.7654 22.5257 9.50509 23.2654 9.50509 24.1779V25.8736C9.50509 26.7861 8.7654 27.5258 7.85294 27.5258H6.6521C5.73964 27.5258 4.99995 28.2654 4.99995 29.1779V30.3787C4.99995 31.2912 4.26025 32.0309 3.3478 32.0309H1.65215C0.739693 32.0309 -7.97695e-08 31.2912 0 30.3787L1.48247e-07 28.683Z" fill="#DADADA"></path>
  <path d="M27.0309 29.278C27.0309 28.3656 26.2912 27.6259 25.3787 27.6259H24.1779C23.2654 27.6259 22.5257 26.8862 22.5257 25.9737V24.278C22.5257 23.3655 23.2654 22.6258 24.1779 22.6258H25.8735C26.786 22.6258 27.5257 23.3655 27.5257 24.278V25.3787C27.5257 26.2912 28.2654 27.0309 29.1778 27.0309H30.3787C31.2911 27.0309 32.0308 27.7705 32.0308 28.683V30.3787C32.0308 31.2912 31.2911 32.0309 30.3787 32.0309H28.683C27.7706 32.0309 27.0309 31.2912 27.0309 30.3787V29.278Z" fill="#DADADA"></path>
</svg>
