<?xml version="1.0" encoding="UTF-8"?>
<svg xmlns="http://www.w3.org/2000/svg" width="61" height="60" viewBox="0 0 61 60" fill="none">
  <path d="M25.3414 37.8537C25.3414 36.1429 23.9545 34.7559 22.2436 34.7559H19.9921C18.2812 34.7559 16.8943 33.369 16.8943 31.6582V28.4786C16.8943 26.7678 18.2812 25.3809 19.9921 25.3809H22.2436C23.9545 25.3809 25.3414 23.9939 25.3414 22.2831V20.0315C25.3414 18.3206 26.7284 16.9337 28.4392 16.9337H31.6185C33.3294 16.9337 34.7163 18.3206 34.7163 20.0315V22.2831C34.7163 23.9939 36.1033 25.3809 37.8141 25.3809H40.0657C41.7765 25.3809 43.1635 26.7678 43.1635 28.4786V31.6582C43.1635 33.369 41.7765 34.7559 40.0657 34.7559H37.8141C36.1032 34.7559 34.7163 36.1429 34.7163 37.8537V39.9176C34.7163 41.6284 33.3294 43.0154 31.6185 43.0154H28.4392C26.7283 43.0154 25.3414 41.6284 25.3414 39.9176V37.8537Z" fill="#111111" fill-opacity="0.4"></path>
  <path fill-rule="evenodd" clip-rule="evenodd" d="M17.0312 54.5603C17.0312 52.8494 15.6443 51.4625 13.9334 51.4625H11.5449C9.83406 51.4625 8.44714 50.0756 8.44714 48.3647V46.1131C8.44714 44.4023 7.06022 43.0154 5.34936 43.0154L3.09778 43.0154C1.38692 43.0154 -1.49568e-07 41.6284 0 39.9176L1.7385e-06 20.0315C1.88807e-06 18.3206 1.38693 16.9337 3.09778 16.9337H5.34937C7.06022 16.9337 8.44714 15.5468 8.44714 13.8359V11.5843C8.44714 9.87349 9.83407 8.48657 11.5449 8.48657H13.7965C15.5074 8.48657 16.8943 7.09965 16.8943 5.38879V3.13721C16.8943 1.42635 18.2812 0.0394286 19.9921 0.0394287L40.0657 0.0394305C41.7766 0.0394306 43.1635 1.42635 43.1635 3.13721V5.38879C43.1635 7.09965 44.5504 8.48657 46.2612 8.48657H48.5128C50.2237 8.48657 51.6106 9.8735 51.6106 11.5844V13.8359C51.6106 15.5468 52.9975 16.9337 54.7084 16.9337H56.96C58.6708 16.9337 60.0578 18.3206 60.0578 20.0315V39.9176C60.0578 41.6284 58.6708 43.0154 56.96 43.0154H54.7084C52.9975 43.0154 51.6106 44.4023 51.6106 46.1131V48.3647C51.6106 50.0756 50.2237 51.4625 48.5128 51.4625H46.2612C44.5504 51.4625 43.1635 52.8494 43.1635 54.5603V56.8119C43.1635 58.5227 41.7765 59.9097 40.0657 59.9097H20.129C18.4181 59.9097 17.0312 58.5227 17.0312 56.8119V54.5603ZM42.2357 45.1852C42.2357 43.4744 43.6226 42.0874 45.3335 42.0874H47.5851C49.2959 42.0874 50.6829 40.7005 50.6829 38.9897V20.9594C50.6829 19.2486 49.2959 17.8617 47.5851 17.8617H45.3335C43.6226 17.8617 42.2357 16.4747 42.2357 14.7639V12.5123C42.2357 10.8014 40.8488 9.41451 39.1379 9.41451L20.9198 9.41451C19.209 9.41451 17.822 10.8014 17.822 12.5123V14.7639C17.822 16.4747 16.4351 17.8617 14.7243 17.8617H12.4727C10.7618 17.8617 9.3749 19.2486 9.3749 20.9594L9.3749 38.9896C9.3749 40.7005 10.7618 42.0874 12.4727 42.0874H14.7243C16.4351 42.0874 17.822 43.4743 17.822 45.1852V47.4368C17.822 49.1476 19.209 50.5346 20.9198 50.5346H39.1379C40.8488 50.5346 42.2357 49.1476 42.2357 47.4368V45.1852Z" fill="#111111" fill-opacity="0.4"></path>
</svg>
