<?xml version="1.0" encoding="UTF-8"?>
<svg xmlns="http://www.w3.org/2000/svg" width="32" height="32" viewBox="0 0 32 32" fill="none">
  <path d="M13.2759 29.1988C13.2759 28.2863 12.5362 27.5467 11.6238 27.5467H10.4229C9.51046 27.5467 8.77077 26.807 8.77077 25.8945V24.1988C8.77077 23.2863 9.51046 22.5466 10.4229 22.5466L18.2759 22.5467L20.634 22.5467C21.5465 22.5467 22.2862 21.807 22.2862 20.8946V20.1885C22.2862 19.2761 21.5465 18.5364 20.634 18.5364H10.4229C9.51046 18.5364 8.77077 17.7967 8.77077 16.8842V15.6834C8.77077 14.7709 8.03108 14.0312 7.11862 14.0312L5.91777 14.0312C5.00532 14.0312 4.26562 13.2915 4.26562 12.3791L4.26563 10.6834C4.26563 9.77097 5.00532 9.03128 5.91777 9.03128H7.11862C8.03108 9.03128 8.77077 8.29159 8.77077 7.37913V6.17829C8.77077 5.26583 9.51046 4.52614 10.4229 4.52614H11.6238C12.5362 4.52614 13.2759 3.78645 13.2759 2.87399V1.67314C13.2759 0.760688 14.0156 0.020996 14.9281 0.0209961L16.6237 0.0209962C17.5362 0.0209963 18.2759 0.760689 18.2759 1.67315V2.87389C18.2759 3.78635 19.0156 4.52604 19.928 4.52604H21.1289C22.0413 4.52604 22.781 5.26573 22.781 6.17819V7.87394C22.781 8.78639 22.0413 9.52609 21.1289 9.52609L10.9177 9.52608C10.0053 9.52608 9.26557 10.2658 9.26557 11.1782V11.8842C9.26557 12.7966 10.0053 13.5363 10.9177 13.5363H21.1289C22.0413 13.5363 22.781 14.276 22.781 15.1885V16.2892C22.781 17.2017 23.5207 17.9414 24.4331 17.9414H25.634C26.5465 17.9414 27.2861 18.681 27.2861 19.5935L27.2861 21.2893C27.2861 22.2017 26.5465 22.9414 25.634 22.9414H24.4331C23.5207 22.9414 22.781 23.6811 22.781 24.5935V25.8945C22.781 26.807 22.0413 27.5467 21.1289 27.5467H19.928C19.0155 27.5467 18.2759 28.2863 18.2759 29.1988V30.2995C18.2759 31.212 17.5362 31.9517 16.6237 31.9517H14.9281C14.0156 31.9517 13.2759 31.212 13.2759 30.2995V29.1988Z" fill="#DADADA"></path>
</svg>
