<?xml version="1.0" encoding="UTF-8"?>
<svg xmlns="http://www.w3.org/2000/svg" width="61" height="60" viewBox="0 0 61 60" fill="none">
  <path d="M42.2461 20.0734C42.2461 18.3626 43.6331 16.9757 45.3439 16.9757L47.5858 16.9757C49.2966 16.9757 50.6836 15.5887 50.6836 13.8779L50.6836 12.5733C50.6836 10.8625 49.2966 9.47553 47.5858 9.47553L45.3439 9.47553C43.6331 9.47553 42.2461 8.08861 42.2461 6.37775L42.2461 3.1984C42.2461 1.48755 43.6331 0.100626 45.3439 0.100625L48.5233 0.100625C50.2341 0.100629 51.621 1.48755 51.621 3.1984L51.621 5.44027C51.621 7.15113 53.008 8.53805 54.7188 8.53805L56.9609 8.53805C58.6717 8.53806 60.0587 9.92498 60.0587 11.6358L60.0587 14.8154C60.0587 16.5262 58.6717 17.9131 56.9609 17.9131L54.719 17.9131C53.0081 17.9131 51.6212 19.3001 51.6212 21.0109L51.6212 23.2528C51.6212 24.9636 50.2343 26.3506 48.5234 26.3506L45.3439 26.3506C43.6331 26.3506 42.2461 24.9636 42.2461 23.2528L42.2461 20.0734Z" fill="#111111" fill-opacity="0.4"></path>
  <path d="M0.000716737 11.4386C0.000716587 9.72773 1.38764 8.34081 3.09849 8.34081L31.6194 8.34081C33.3303 8.34081 34.7172 9.72773 34.7172 11.4386L34.7172 14.6179C34.7172 16.3288 33.3303 17.7157 31.6194 17.7157L12.4736 17.7157C10.7627 17.7157 9.37579 19.1026 9.37579 20.8135L9.37579 22.9028C9.37579 24.6137 7.98887 26.0006 6.27801 26.0006L3.0985 26.0006C1.38764 26.0006 0.000710259 24.6137 0.000710109 22.9028L0.000716737 11.4386Z" fill="#111111" fill-opacity="0.4"></path>
  <path d="M24.8483 45.2367C24.8483 43.5258 26.2352 42.1389 27.9461 42.1389L47.5896 42.1389C49.3005 42.1389 50.6874 40.752 50.6874 39.0411L50.6874 36.7703C50.6874 35.0594 52.0743 33.6725 53.7852 33.6725L56.9647 33.6725C58.6756 33.6725 60.0625 35.0594 60.0625 36.7703L60.0625 48.416C60.0625 50.1269 58.6756 51.5138 56.9647 51.5138L51.6154 51.5139L27.9461 51.514C26.2352 51.514 24.8483 50.1271 24.8483 48.4162L24.8483 45.2367Z" fill="#111111" fill-opacity="0.4"></path>
  <path d="M8.44199 54.6118C8.44199 52.9009 7.05506 51.514 5.34421 51.514L3.10234 51.514C1.39148 51.514 0.00456152 50.1271 0.00456137 48.4162L0.00456109 45.2367C0.00456094 43.5258 1.39148 42.1389 3.10234 42.1389L5.34421 42.1389C7.05507 42.1389 8.44199 40.752 8.44199 39.0411L8.44199 36.7991C8.44199 35.0882 9.82891 33.7013 11.5398 33.7013L14.7193 33.7013C16.4301 33.7013 17.8171 35.0882 17.8171 36.7991L17.8171 39.9786C17.8171 41.6895 16.4301 43.0764 14.7193 43.0764L12.4774 43.0764C10.7666 43.0764 9.37964 44.4633 9.37965 46.1742L9.37965 47.4787C9.37965 49.1896 10.7666 50.5765 12.4774 50.5765L14.7193 50.5765C16.4301 50.5765 17.8171 51.9634 17.8171 53.6743L17.8171 56.8536C17.8171 58.5645 16.4301 59.9514 14.7193 59.9514L11.5398 59.9514C9.82891 59.9514 8.44198 58.5645 8.44199 56.8536L8.44199 54.6118Z" fill="#111111" fill-opacity="0.4"></path>
</svg>
