<?xml version="1.0" encoding="UTF-8"?>
<svg xmlns="http://www.w3.org/2000/svg" width="61" height="61" viewBox="0 0 61 61" fill="none">
  <path d="M25.3199 53.735C25.3199 52.0256 26.7057 50.6399 28.4151 50.6399H47.5447C49.2541 50.6399 50.6399 49.2541 50.6399 47.5447V29.3422C50.6399 27.6328 49.2541 26.2471 47.5447 26.2471H45.1075C43.3981 26.2471 42.0123 24.8613 42.0123 23.1519V20.9023C42.0123 19.1929 40.6266 17.8071 38.9172 17.8071H37.782C36.0726 17.8071 34.6869 19.1929 34.6869 20.9023V23.1519C34.6869 24.8613 33.3011 26.2471 31.5917 26.2471H28.4151C26.7057 26.2471 25.3199 24.8613 25.3199 23.1519V19.9753C25.3199 18.2659 26.7057 16.8801 28.4151 16.8801H30.6648C32.3742 16.8801 33.7599 15.4944 33.7599 13.785V12.4623C33.7599 10.7529 32.3742 9.36713 30.6648 9.36713H28.2275C26.5181 9.36713 25.1324 7.98138 25.1324 6.27198V3.09515C25.1324 1.38575 26.5181 -1.49441e-07 28.2275 0L48.2841 1.7534e-06C49.9936 1.90285e-06 51.3793 1.38575 51.3793 3.09515V6.27198C51.3793 7.98139 49.9936 9.36713 48.2841 9.36713H46.222C44.5126 9.36713 43.1269 10.7529 43.1269 12.4623V13.7848C43.1269 15.4942 44.5126 16.88 46.222 16.88H48.2841C49.9935 16.88 51.3793 18.2657 51.3793 19.9751V22.2248C51.3793 23.9342 52.765 25.3199 54.4744 25.3199H56.9117C58.6211 25.3199 60.0068 26.7057 60.0068 28.4151V48.4719C60.0068 50.1813 58.6211 51.567 56.9117 51.567H54.662C52.9526 51.567 51.5668 52.9528 51.5668 54.6622V56.9119C51.5668 58.6213 50.1811 60.007 48.4717 60.007H28.4151C26.7057 60.007 25.3199 58.6213 25.3199 56.9119V53.735Z" fill="#111111" fill-opacity="0.4"></path>
  <path d="M3.22911e-06 19.9751C3.37855e-06 18.2657 1.38575 16.88 3.09516 16.88H14.8993C16.6087 16.88 17.9945 18.2657 17.9945 19.9751V23.1519C17.9945 24.8613 16.6087 26.2471 14.8993 26.2471L3.09516 26.2471C1.38575 26.2471 2.80194e-06 24.8613 2.95139e-06 23.1519L3.22911e-06 19.9751Z" fill="#111111" fill-opacity="0.4"></path>
  <path d="M1.75342e-06 36.8551C1.90286e-06 35.1457 1.38575 33.7599 3.09515 33.7599L23.1518 33.7599C24.8612 33.7599 26.2469 35.1457 26.2469 36.8551V40.0319C26.2469 41.7413 24.8612 43.1271 23.1518 43.1271L3.09515 43.127C1.38575 43.127 1.32625e-06 41.7413 1.47569e-06 40.0319L1.75342e-06 36.8551Z" fill="#111111" fill-opacity="0.4"></path>
  <path d="M2.77711e-07 53.7352C4.27152e-07 52.0258 1.38575 50.6401 3.09515 50.6401H14.8993C16.6087 50.6401 17.9945 52.0258 17.9945 53.7352V56.9119C17.9945 58.6213 16.6087 60.007 14.8993 60.007H3.09515C1.38575 60.007 -1.49441e-07 58.6213 0 56.9119L2.77711e-07 53.7352Z" fill="#111111" fill-opacity="0.4"></path>
</svg>
