<?xml version="1.0" encoding="UTF-8"?>
<svg xmlns="http://www.w3.org/2000/svg" width="32" height="32" viewBox="0 0 32 32" fill="none">
  <path fill-rule="evenodd" clip-rule="evenodd" d="M18.0053 1.67683C18.0053 0.765148 18.7444 0.0260831 19.656 0.0260832L22.4885 0.0260835C22.4957 0.0260835 22.5015 0.0202448 22.5015 0.0130425C22.5015 0.0058402 22.5074 1.57344e-06 22.5146 1.57407e-06L30.3345 2.25771e-06C31.2462 2.33742e-06 31.9853 0.739068 31.9853 1.65075V12.1997C31.9853 13.1114 31.2462 13.8505 30.3345 13.8505H23.0141C23.0069 13.8505 23.0011 13.8563 23.0011 13.8635C23.0011 13.8707 22.9953 13.8765 22.9881 13.8765H19.656C18.7444 13.8765 18.0053 13.1375 18.0053 12.2258L18.0053 1.67683ZM26.9895 6.64646C26.9895 5.73477 26.2504 4.99571 25.3387 4.99571H24.6518C23.7402 4.99571 23.0011 5.73477 23.0011 6.64646V7.204C23.0011 8.11569 23.7402 8.85475 24.6518 8.85475H25.3387C26.2504 8.85475 26.9895 8.11569 26.9895 7.204V6.64646Z" fill="#DADADA"></path>
  <path fill-rule="evenodd" clip-rule="evenodd" d="M9.22219e-07 1.67683C1.00192e-06 0.765147 0.739066 0.0260816 1.65075 0.0260816L4.4832 0.0260819C4.49041 0.0260819 4.49624 0.0202433 4.49624 0.0130409C4.49624 0.00583863 4.50208 -6.29646e-10 4.50928 0L12.3292 6.83642e-07C13.2409 7.63344e-07 13.98 0.739066 13.98 1.65075L13.98 12.1997C13.98 13.1114 13.2409 13.8505 12.3292 13.8505H5.00884C5.00164 13.8505 4.9958 13.8563 4.9958 13.8635C4.9958 13.8707 4.98996 13.8765 4.98276 13.8765H1.65075C0.739065 13.8765 -7.97019e-08 13.1375 0 12.2258L9.22219e-07 1.67683ZM8.98418 6.64645C8.98418 5.73477 8.24512 4.99571 7.33344 4.99571H6.64655C5.73487 4.99571 4.9958 5.73477 4.9958 6.64645V7.204C4.9958 8.11568 5.73487 8.85475 6.64655 8.85475H7.33344C8.24512 8.85475 8.98418 8.11569 8.98418 7.204V6.64645Z" fill="#DADADA"></path>
  <path d="M9.70354e-05 19.656C9.71151e-05 18.7444 0.739162 18.0053 1.65085 18.0053L30.3344 18.0053C31.2461 18.0053 31.9852 18.7444 31.9852 19.656L31.9852 30.2529C31.9852 31.1645 31.2461 31.9036 30.3344 31.9036H28.6402C27.7285 31.9036 26.9895 31.1645 26.9895 30.2529L26.9895 24.6517C26.9895 23.7401 26.2504 23.001 25.3387 23.001H20.132C19.2203 23.001 18.4812 23.7401 18.4812 24.6517V30.2817C18.4812 31.1934 17.7421 31.9324 16.8305 31.9324H15.1363C14.2246 31.9324 13.4855 31.1934 13.4855 30.2817V24.6517C13.4855 23.7401 12.7464 23.001 11.8348 23.001H6.64655C5.73487 23.001 4.9958 23.7401 4.9958 24.6517L4.9958 30.3529C4.9958 31.2646 4.25674 32.0036 3.34505 32.0036H1.65084C0.739161 32.0036 9.60205e-05 31.2646 9.61002e-05 30.3529L9.70354e-05 19.656Z" fill="#DADADA"></path>
</svg>
